<svg xmlns="http://www.w3.org/2000/svg" xmlns:xlink="http://www.w3.org/1999/xlink" width="14" height="14" viewBox="0 0 14 14"><defs><clipPath id="a"><rect width="14" height="14" fill="#fff"/></clipPath></defs><g clip-path="url(#a)"><path d="M9.15,0h-4.3A4.856,4.856,0,0,0,0,4.851v4.3A4.855,4.855,0,0,0,4.851,14h4.3A4.855,4.855,0,0,0,14,9.15v-4.3A4.856,4.856,0,0,0,9.15,0m.608,7.993H7.993V9.758a.993.993,0,0,1-1.985,0V7.993H4.243a.993.993,0,1,1,0-1.985H6.008V4.243a.993.993,0,1,1,1.985,0V6.008H9.758a.993.993,0,0,1,0,1.985" fill="#fff"/></g></svg>