<svg xmlns="http://www.w3.org/2000/svg" width="22.306" height="20" viewBox="0 0 22.306 20">
  <path id="Path_35" data-name="Path 35" d="M10.923,10A1.062,1.062,0,0,0,9.807,9a1.062,1.062,0,0,0-1.115,1,1.062,1.062,0,0,0,1.115,1A1.062,1.062,0,0,0,10.923,10Zm5.019,4.06a1.228,1.228,0,0,0-.847-.1,1.109,1.109,0,0,0-.681.464,1.537,1.537,0,0,1-2.521,0,1.109,1.109,0,0,0-.681-.464,1.228,1.228,0,0,0-.847.1.946.946,0,0,0-.413,1.36,3.787,3.787,0,0,0,3.2,1.661,3.787,3.787,0,0,0,3.2-1.661.946.946,0,0,0-.413-1.36ZM16.5,9a1.062,1.062,0,0,0-1.115,1,1.122,1.122,0,0,0,2.231,0A1.062,1.062,0,0,0,16.5,9ZM13.153,2C6.993,2,2,6.477,2,12S6.993,22,13.153,22s11.153-4.477,11.153-10S19.313,2,13.153,2Zm0,18c-4.286.017-7.979-2.7-8.8-6.473S5.827,5.994,9.807,4.57a2.691,2.691,0,0,0,0,.43,3.187,3.187,0,0,0,3.346,3,1.062,1.062,0,0,0,1.115-1,1.062,1.062,0,0,0-1.115-1,1.062,1.062,0,0,1-1.115-1,1.062,1.062,0,0,1,1.115-1c4.928,0,8.923,3.582,8.923,8S18.081,20,13.153,20Z" transform="translate(-2 -2)" fill="#f15a29"/>
</svg>
