<svg xmlns="http://www.w3.org/2000/svg" width="15" height="15" viewBox="0 0 15 15"><path d="M14.309,2.252,12.491.438A1.5,1.5,0,0,0,11.43,0H3.569A1.5,1.5,0,0,0,2.508.438L.69,2.252A2.343,2.343,0,0,0,0,3.914V12.65A2.354,2.354,0,0,0,2.357,15H12.643A2.354,2.354,0,0,0,15,12.65V3.914a2.344,2.344,0,0,0-.691-1.662M7.5,10.741A3.971,3.971,0,0,1,3.528,6.78a.9.9,0,0,1,1.8,0,2.169,2.169,0,0,0,4.338,0,.9.9,0,0,1,1.8,0A3.971,3.971,0,0,1,7.5,10.741M4.106,1.651h6.817a.737.737,0,0,1,.561.26l1.482,1.741H1.862L3.574,1.877a.738.738,0,0,1,.531-.226" fill="#fff" fill-rule="evenodd"/></svg>