<svg xmlns="http://www.w3.org/2000/svg" xmlns:xlink="http://www.w3.org/1999/xlink" width="11.772" height="13.528" viewBox="0 0 11.772 13.528"><defs><clipPath id="a"><rect width="11.772" height="13.528" fill="#fff"/></clipPath></defs><g clip-path="url(#a)"><path d="M11.609,9.07l-1.3-1.79a1.458,1.458,0,0,1-.325-.935V4.822C9.987,2.288,8.136.078,6.006,0,3.8-.077,1.762,2.025,1.762,4.628V6.345a1.458,1.458,0,0,1-.325.935L.163,9.07c-.349.416-.1,1.129.394,1.129H11.217c.495,0,.743-.713.393-1.129" transform="translate(0 0)" fill="#fff"/><path d="M4.449,11.544a2.152,2.152,0,0,0,4.291,0Z" transform="translate(-0.707 0)" fill="#fff"/></g></svg>