<svg xmlns="http://www.w3.org/2000/svg" width="21.215" height="19" viewBox="0 0 21.215 19">
  <path id="XMLID_2257_" d="M21.529,3.49a6.108,6.108,0,0,0-7.995,0L3.662,12.342a4.7,4.7,0,0,0,0,7.168,5.973,5.973,0,0,0,4,1.49,5.868,5.868,0,0,0,4-1.49l9.9-8.874a4.8,4.8,0,0,0,1.662-3.584A4.7,4.7,0,0,0,21.529,3.49ZM10.284,18.3a3.926,3.926,0,0,1-2.625.972A3.926,3.926,0,0,1,5.034,18.3a3.1,3.1,0,0,1,0-4.707L9.056,9.989A16.253,16.253,0,0,1,14.329,14.7Zm9.9-8.874-4.623,4.145a18.4,18.4,0,0,0-5.3-4.707L14.907,4.7a4.031,4.031,0,0,1,5.25,0,3.144,3.144,0,0,1,.024,4.728ZM15.365,6.9a.7.7,0,0,1,0,1.08L14.209,9.017a.947.947,0,0,1-1.2,0,.7.7,0,0,1,0-1.08L14.161,6.9A.913.913,0,0,1,15.365,6.9Zm1.926-1.749a.865.865,0,0,1,.289.6.779.779,0,0,1-.289.6,1.073,1.073,0,0,1-.674.259.924.924,0,0,1-.674-.259.908.908,0,0,1-.289-.6.749.749,0,0,1,.289-.6,1.007,1.007,0,0,1,.674-.259A1.022,1.022,0,0,1,17.291,5.152Z" transform="translate(-2 -2)" fill="#f15a29"/>
</svg>
