<svg xmlns="http://www.w3.org/2000/svg" width="40.356" height="21" viewBox="0 0 40.356 21"><path d="M685.724,200.449h-4V196.1a.6.6,0,1,0-1.2,0v4.946a.6.6,0,0,0,.6.6h4.6a.6.6,0,0,0,0-1.2" transform="translate(-648.149 -191.225)" fill="#202155"/><path d="M12.2,318.511a.6.6,0,0,0-.6-.6H.6a.6.6,0,0,0,0,1.2H11.606a.6.6,0,0,0,.6-.6" transform="translate(0 -307.812)" fill="#202155"/><path d="M77.569,239.142H88.577a.6.6,0,1,0,0-1.2H77.569a.6.6,0,1,0,0,1.2" transform="translate(-73.309 -231.649)" fill="#202155"/><path d="M164.322,114.738l-3.116-5.781a1.878,1.878,0,0,0-1.655-.987h-6.225a1.864,1.864,0,0,0-.683.133v-.63a1.882,1.882,0,0,0-1.88-1.88l-18.489,0a1.882,1.882,0,0,0-1.88,1.88v2.417a.6.6,0,1,0,1.2,0v-2.417a.684.684,0,0,1,.683-.683l18.489,0a.684.684,0,0,1,.683.683v13.833a.683.683,0,0,1-.683.683H142.9a4,4,0,0,0-7.912,0h-2.68a.684.684,0,0,1-.683-.683v-2.3a.6.6,0,1,0-1.2,0v2.3a1.882,1.882,0,0,0,1.88,1.88h2.68a4,4,0,0,0,7.912,0h7.865a1.868,1.868,0,0,0,1.281-.512,1.869,1.869,0,0,0,1.282.512h.715a4,4,0,0,0,7.912,0h.715a1.882,1.882,0,0,0,1.88-1.88V115.63a1.881,1.881,0,0,0-.226-.892m-22.575,7.9a2.808,2.808,0,1,1,0-.1c0,.018-.01.033-.01.05s.009.033.01.051M158,125.4a2.809,2.809,0,1,1,2.808-2.809A2.812,2.812,0,0,1,158,125.4m5.353-4.09a.684.684,0,0,1-.683.683h-.715a4,4,0,0,0-7.912,0h-.715a.684.684,0,0,1-.683-.683V109.851a.684.684,0,0,1,.683-.683h6.225a.683.683,0,0,1,.6.359l3.116,5.78a.685.685,0,0,1,.082.324Z" transform="translate(-124.191 -105.594)" fill="#202155"/></svg>