<svg xmlns="http://www.w3.org/2000/svg" width="26.83" height="22.685" viewBox="0 0 26.83 22.685"><g transform="translate(0)"><path d="M1855.3,1648.736a.6.6,0,1,0-1.2,0,4.153,4.153,0,0,0,3.7,4.024v.813a.6.6,0,0,0,1.2,0v-.813a4.153,4.153,0,0,0,3.7-4.024c0-2.415-2-3.4-3.7-3.919v-4.629a2.321,2.321,0,0,1,1.873,2.2.6.6,0,1,0,1.2,0,3.54,3.54,0,0,0-3.069-3.425V1637.8a.6.6,0,1,0-1.2,0v1.169a3.54,3.54,0,0,0-3.069,3.425c0,1.084.549,2.511,3.069,3.322v5.838a2.942,2.942,0,0,1-2.5-2.815m6.2,0a2.942,2.942,0,0,1-2.5,2.815v-5.476c1.744.6,2.5,1.416,2.5,2.661m-5.573-6.345a2.321,2.321,0,0,1,1.872-2.2v4.254c-1.238-.476-1.872-1.162-1.872-2.051" transform="translate(-1844.985 -1634.342)" fill="#202155"/><path d="M1733.484,1793.759a.612.612,0,0,0-.085-.053.571.571,0,0,0-.112-.029.6.6,0,0,0-.118-.018c-.01,0-.019,0-.03,0a.581.581,0,0,0-.073.018.589.589,0,0,0-.123.03.578.578,0,0,0-.108.063.539.539,0,0,0-.068.039l-2.34,2.068a.6.6,0,1,0,.793.9l1.3-1.151a10.141,10.141,0,0,1-20.017,1.2.6.6,0,1,0-1.171.249,11.3,11.3,0,0,0,11.082,8.974c.16,0,.32,0,.481-.01a11.319,11.319,0,0,0,10.81-10.256l1.073,1.215a.6.6,0,1,0,.9-.793l-2.068-2.339c-.007-.008-.017-.011-.024-.019a.6.6,0,0,0-.1-.079" transform="translate(-1709 -1783.355)" fill="#202155"/><path d="M1664.738,1589.342c.005.006.013.008.018.013a.576.576,0,0,0,.095.071.588.588,0,0,0,.091.06.612.612,0,0,0,.1.026.586.586,0,0,0,.105.026h.054c.021,0,.038-.012.059-.015a.585.585,0,0,0,.153-.037.561.561,0,0,0,.078-.048.6.6,0,0,0,.088-.054l2.313-2.1a.6.6,0,1,0-.8-.887l-1.267,1.15a10.124,10.124,0,0,1,9.671-9.19,10.182,10.182,0,0,1,10.266,7.682.6.6,0,0,0,1.162-.289,11.344,11.344,0,0,0-19.352-4.938,11.248,11.248,0,0,0-2.937,6.631l-1.105-1.219a.6.6,0,0,0-.887.8Z" transform="translate(-1662.486 -1577.152)" fill="#202155"/></g></svg>