<svg id="Group_77856" data-name="Group 77856" xmlns="http://www.w3.org/2000/svg" xmlns:xlink="http://www.w3.org/1999/xlink" width="27.39" height="27.39" viewBox="0 0 27.39 27.39">
  <defs>
    <clipPath id="clip-path">
      <rect id="Rectangle_4458" data-name="Rectangle 4458" width="27.39" height="27.39" fill="#f15a29"/>
    </clipPath>
  </defs>
  <g id="Group_77855" data-name="Group 77855" clip-path="url(#clip-path)">
    <path id="Path_12185" data-name="Path 12185" d="M13.7,0A13.7,13.7,0,1,0,27.39,13.713,13.7,13.7,0,0,0,13.7,0m5.65,7.174a2.376,2.376,0,1,1-2.465,2.248,2.38,2.38,0,0,1,2.465-2.248m-11.228,0A2.376,2.376,0,1,1,5.754,9.538,2.372,2.372,0,0,1,8.125,7.172m9.526,14.392a7.6,7.6,0,0,1-6.55.663A7.255,7.255,0,0,1,6.45,17.05a1.165,1.165,0,0,1,1.154-1.4h12.14a1.189,1.189,0,0,1,1.15,1.467,6.985,6.985,0,0,1-3.244,4.451" transform="translate(0 0)" fill="#f15a29"/>
  </g>
</svg>
