<svg id="grid-button" xmlns="http://www.w3.org/2000/svg" width="19.994" height="19.994" viewBox="0 0 19.994 19.994">
  <path id="Path_11859" data-name="Path 11859" d="M32.125,8H25.547a.711.711,0,0,1-.71-.71V.71a.711.711,0,0,1,.71-.71h6.578a.71.71,0,0,1,.71.71V7.288a.71.71,0,0,1-.71.71" transform="translate(-24.837)" fill="#b8caf7"/>
  <path id="Path_11860" data-name="Path 11860" d="M32.125,16.4H25.547a.711.711,0,0,1-.71-.71V9.11a.711.711,0,0,1,.71-.71h6.578a.71.71,0,0,1,.71.71v6.578a.71.71,0,0,1-.71.71" transform="translate(-24.837 3.596)" fill="#b8caf7"/>
  <path id="Path_11861" data-name="Path 11861" d="M40.525,8H33.947a.711.711,0,0,1-.71-.71V.71a.711.711,0,0,1,.71-.71h6.578a.71.71,0,0,1,.71.71V7.288a.71.71,0,0,1-.71.71" transform="translate(-21.241)" fill="#b8caf7"/>
  <path id="Path_11862" data-name="Path 11862" d="M40.525,16.4H33.947a.711.711,0,0,1-.71-.71V9.11a.711.711,0,0,1,.71-.71h6.578a.71.71,0,0,1,.71.71v6.578a.71.71,0,0,1-.71.71" transform="translate(-21.241 3.596)" fill="#b8caf7"/>
</svg>
