<svg xmlns="http://www.w3.org/2000/svg" width="22.296" height="18.011" viewBox="0 0 22.296 18.011">
  <path id="Path_37" data-name="Path 37" d="M9.806,21a7.671,7.671,0,0,0,7.606-5.462,6.815,6.815,0,0,0-4.26-7.858V7h2.5a4.611,4.611,0,0,0,4.194,2c2.5,0,4.461-1.32,4.461-3s-1.963-3-4.461-3A4.611,4.611,0,0,0,15.65,5h-2.5V4H6.46V7.68A6.815,6.815,0,0,0,2.2,15.538,7.671,7.671,0,0,0,9.806,21ZM19.844,5c1.361,0,2.231.59,2.231,1s-.87,1-2.231,1-2.231-.59-2.231-1S18.483,5,19.844,5ZM8.691,6h2.231V7.08A8.689,8.689,0,0,0,9.806,7a8.689,8.689,0,0,0-1.115.08ZM9.806,9a5.312,5.312,0,0,1,5.577,5,5.312,5.312,0,0,1-5.577,5A5.312,5.312,0,0,1,4.23,14,5.312,5.312,0,0,1,9.806,9Z" transform="translate(-2.009 -2.989)" fill="#f15a29"/>
</svg>
