<svg xmlns="http://www.w3.org/2000/svg" width="18.166" height="23.763" viewBox="0 0 18.166 23.763"><g transform="translate(0)"><path d="M3276.353,56.9h13.569a2.3,2.3,0,0,0,2.3-2.3v-9.9a2.3,2.3,0,0,0-2.3-2.3h-.3V39.626a6.485,6.485,0,0,0-12.97,0v2.782h-.3a2.3,2.3,0,0,0-2.3,2.3v9.9a2.3,2.3,0,0,0,2.3,2.3m1.5-17.279a5.288,5.288,0,0,1,10.576,0v2.782h-2.5V39.437a2.792,2.792,0,0,0-5.584,0v2.972h-2.5Zm3.692-.189a1.6,1.6,0,0,1,3.191,0v2.972h-3.191Zm-6.291,5.27a1.1,1.1,0,0,1,1.1-1.1h13.569a1.1,1.1,0,0,1,1.1,1.1v9.9a1.1,1.1,0,0,1-1.1,1.1h-13.569a1.1,1.1,0,0,1-1.1-1.1Z" transform="translate(-3274.055 -33.142)" fill="#202155"/><path d="M3427.4,334.741a1.88,1.88,0,0,0,1.878-1.877v-2.39a1.877,1.877,0,1,0-3.754,0v2.39a1.879,1.879,0,0,0,1.876,1.877m-.68-4.267a.68.68,0,1,1,1.36,0v2.39a.68.68,0,1,1-1.36,0Z" transform="translate(-3418.316 -314.541)" fill="#202155"/></g></svg>