<svg xmlns="http://www.w3.org/2000/svg" width="22.306" height="20" viewBox="0 0 22.306 20">
  <path id="Path_33" data-name="Path 33" d="M6.06,17l-.792.71a.928.928,0,0,0,0,1.41,1.208,1.208,0,0,0,1.573,0l.792-.71a.926.926,0,0,0-.058-1.358A1.211,1.211,0,0,0,6.06,17Zm-.714-5a1.062,1.062,0,0,0-1.115-1H3.115A1.062,1.062,0,0,0,2,12a1.062,1.062,0,0,0,1.115,1H4.231A1.062,1.062,0,0,0,5.346,12Zm7.807-7a1.062,1.062,0,0,0,1.115-1V3a1.122,1.122,0,0,0-2.231,0V4A1.062,1.062,0,0,0,13.153,5ZM6.06,7.05a1.211,1.211,0,0,0,1.573,0,.928.928,0,0,0,0-1.41L6.84,4.93a1.211,1.211,0,0,0-1.514.052A.926.926,0,0,0,5.268,6.34Zm13.384.29a1.184,1.184,0,0,0,.781-.29l.792-.71a.941.941,0,0,0,.359-.993,1.064,1.064,0,0,0-.824-.738,1.194,1.194,0,0,0-1.108.322l-.714.71a.928.928,0,0,0,0,1.41,1.179,1.179,0,0,0,.736.29ZM23.191,11H22.076a1.062,1.062,0,0,0-1.115,1,1.062,1.062,0,0,0,1.115,1h1.115a1.062,1.062,0,0,0,1.115-1A1.062,1.062,0,0,0,23.191,11ZM13.153,19a1.062,1.062,0,0,0-1.115,1v1a1.122,1.122,0,0,0,2.231,0V20A1.062,1.062,0,0,0,13.153,19Zm7.093-2a1.213,1.213,0,0,0-1.331.167.924.924,0,0,0-.186,1.193l.792.71a1.208,1.208,0,0,0,1.573,0,.928.928,0,0,0,0-1.41ZM13.153,6.5C9.765,6.5,7.019,8.962,7.019,12s2.746,5.5,6.134,5.5,6.134-2.462,6.134-5.5-2.749-5.494-6.134-5.5Zm0,9A3.718,3.718,0,0,1,9.25,12a3.718,3.718,0,0,1,3.9-3.5,3.718,3.718,0,0,1,3.9,3.5,3.718,3.718,0,0,1-3.9,3.5Z" transform="translate(-2 -2)" fill="#f15a29"/>
</svg>
