<svg id="list-button" xmlns="http://www.w3.org/2000/svg" width="19.994" height="17.546" viewBox="0 0 19.994 17.546">
  <path id="Path_11863" data-name="Path 11863" d="M18.552.857H1.444A1.45,1.45,0,0,0,0,2.289v.581A1.444,1.444,0,0,0,1.444,4.312H18.552a1.444,1.444,0,0,0,1.442-1.441V2.288A1.447,1.447,0,0,0,18.552.857" transform="translate(0 -0.857)" fill="#ecf3ff"/>
  <path id="Path_11864" data-name="Path 11864" d="M18.552,5.79H1.444A1.451,1.451,0,0,0,0,7.222v.583a1.444,1.444,0,0,0,1.444,1.44H18.552a1.443,1.443,0,0,0,1.442-1.44V7.222A1.448,1.448,0,0,0,18.552,5.79" transform="translate(0 1.254)" fill="#ecf3ff"/>
  <path id="Path_11865" data-name="Path 11865" d="M18.548,10.724H1.444A1.45,1.45,0,0,0,0,12.156v.581a1.444,1.444,0,0,0,1.444,1.441h17.1a1.444,1.444,0,0,0,1.442-1.441v-.583a1.447,1.447,0,0,0-1.442-1.431" transform="translate(0 3.368)" fill="#ecf3ff"/>
</svg>
