<svg xmlns="http://www.w3.org/2000/svg" xmlns:xlink="http://www.w3.org/1999/xlink" width="220" height="51.798" viewBox="0 0 220 51.798"><defs><clipPath id="a"><rect width="220" height="51.798" fill="#202155"/></clipPath></defs><g clip-path="url(#a)"><path d="M48.416,24.208A24.208,24.208,0,1,1,24.208,0,24.208,24.208,0,0,1,48.416,24.208" transform="translate(0 0)" fill="#f15a29"/><path d="M25.783,28.132l-2.9,5.325h0L20.3,38.241a1.92,1.92,0,0,1-.57.726l-.05.028a1.466,1.466,0,0,1-1.353-.367,1.672,1.672,0,0,1-.162-.933l.176-15.465-3.023-2.4L15.139,37.46a6.963,6.963,0,0,0,.179,1.966A2.851,2.851,0,0,0,16.9,41.234a6.206,6.206,0,0,0,1.349.5,6.513,6.513,0,0,0,1.615.249,2.624,2.624,0,0,0,1.382-.353,4.763,4.763,0,0,0,1.786-2.107l2.977-5.455.021,0,2.179-4.013Z" transform="translate(-3.179 -4.167)" fill="#fff"/><path d="M32.9,26.009l2.21-4.069h0l2.6-4.785c.325-.584.545-.719.615-.751a1.12,1.12,0,0,1,.717.013,1.065,1.065,0,0,1,.632.349.449.449,0,0,1,.061.115l.016.053a2.677,2.677,0,0,1,.088.773l-.158,13.677,3.022,2.4.16-15.837a7.047,7.047,0,0,0-.179-1.972c-.312-1.115-1.27-1.869-2.93-2.3a7.734,7.734,0,0,0-1.092-.212,2.917,2.917,0,0,0-1.905.32,4.779,4.779,0,0,0-1.786,2.1l-2.945,5.4L32,21.266l-1.529,2.818Z" transform="translate(-6.4 -2.82)" fill="#fff"/><path d="M76.618,63.11V57.393a.513.513,0,0,1,.523-.523h3.473a.488.488,0,0,1,.5.492.48.48,0,0,1-.5.481H77.7v1.732h2.1a.471.471,0,1,1,0,.942H77.7v2.142h3.033a.48.48,0,0,1,.5.481.488.488,0,0,1-.5.492h-3.6a.512.512,0,0,1-.523-.522" transform="translate(-16.094 -11.946)" fill="#202155"/><path d="M85.746,60.221A3.48,3.48,0,0,1,89.3,56.727a3.425,3.425,0,0,1,2.633,1.179.693.693,0,0,1,.175.43.5.5,0,0,1-.5.492.552.552,0,0,1-.431-.215,2.322,2.322,0,0,0-1.864-.891,2.5,2.5,0,0,0,0,5,2.35,2.35,0,0,0,1.854-.892.556.556,0,0,1,.441-.215.5.5,0,0,1,.5.492.7.7,0,0,1-.185.431A3.359,3.359,0,0,1,89.3,63.715a3.48,3.48,0,0,1-3.556-3.494" transform="translate(-18.011 -11.916)" fill="#202155"/><path d="M102.788,63.14a.488.488,0,0,1-.5.492H97.8a.5.5,0,0,1-.513-.492.638.638,0,0,1,.164-.358l3.781-4.939H98.178a.48.48,0,0,1-.5-.481.488.488,0,0,1,.5-.492h4.047a.494.494,0,0,1,.5.492.6.6,0,0,1-.154.348l-3.781,4.949h3.494a.479.479,0,0,1,.5.481" transform="translate(-20.435 -11.946)" fill="#202155"/><path d="M113.574,63.192a.534.534,0,0,1-1.045.144l-.419-.953h-3.187l-.4.953a.534.534,0,0,1-1.045-.144.687.687,0,0,1,.082-.307l2.449-5.789a.547.547,0,0,1,1.034,0l2.45,5.789a.872.872,0,0,1,.081.307M109.3,61.46h2.418l-1.2-3.145Z" transform="translate(-22.576 -11.916)" fill="#202155"/><path d="M124.747,57.28v5.9a.523.523,0,0,1-.532.533.631.631,0,0,1-.512-.307l-3.443-4.539v4.293a.543.543,0,1,1-1.086,0v-5.9a.53.53,0,0,1,.533-.533c.246,0,.369.123.543.359l3.422,4.477-.01-4.283a.543.543,0,1,1,1.085,0" transform="translate(-25.033 -11.916)" fill="#202155"/><path d="M130.843,63.11V57.393a.513.513,0,0,1,.523-.523h3.473a.488.488,0,0,1,.5.492.48.48,0,0,1-.5.481h-2.91v1.732h2.1a.471.471,0,1,1,0,.942h-2.1v2.142h3.033a.48.48,0,0,1,.5.481.488.488,0,0,1-.5.492h-3.6a.512.512,0,0,1-.523-.522" transform="translate(-27.484 -11.946)" fill="#202155"/><path d="M146.777,63.192V57.434a.544.544,0,0,1,.564-.564h1.9a2.085,2.085,0,1,1,0,4.15h-1.374v2.172a.543.543,0,1,1-1.086,0m2.45-3.135a1.114,1.114,0,1,0,0-2.223h-1.363v2.223Z" transform="translate(-30.831 -11.946)" fill="#202155"/><path d="M161.225,63.192a.534.534,0,0,1-1.045.144l-.419-.953h-3.187l-.4.953a.534.534,0,0,1-1.045-.144.687.687,0,0,1,.082-.307L157.66,57.1a.547.547,0,0,1,1.034,0l2.45,5.789a.872.872,0,0,1,.081.307m-4.272-1.732h2.418l-1.2-3.145Z" transform="translate(-32.585 -11.916)" fill="#202155"/><path d="M171.586,63.14a.488.488,0,0,1-.5.492H166.6a.5.5,0,0,1-.513-.492.638.638,0,0,1,.164-.358l3.781-4.939h-3.053a.48.48,0,0,1-.5-.481.488.488,0,0,1,.5-.492h4.047a.494.494,0,0,1,.5.492.6.6,0,0,1-.154.348l-3.781,4.949h3.494a.479.479,0,0,1,.5.481" transform="translate(-34.887 -11.946)" fill="#202155"/><path d="M182.372,63.192a.534.534,0,0,1-1.045.144l-.419-.953h-3.187l-.4.953a.534.534,0,0,1-1.045-.144.687.687,0,0,1,.082-.307l2.449-5.789a.547.547,0,0,1,1.034,0l2.45,5.789a.872.872,0,0,1,.081.307M178.1,61.46h2.418l-1.2-3.145Z" transform="translate(-37.027 -11.916)" fill="#202155"/><path d="M193.188,63.254a.5.5,0,0,1-.5.491.588.588,0,0,1-.483-.276l-1.772-2.449h-1.373v2.172a.543.543,0,1,1-1.086,0V57.424a.539.539,0,0,1,.554-.554h1.905a2.073,2.073,0,0,1,2.3,2.07,1.964,1.964,0,0,1-1.189,1.864l1.486,2.039a.664.664,0,0,1,.164.411m-4.13-3.2h1.352a1.07,1.07,0,0,0,1.2-1.107,1.082,1.082,0,0,0-1.2-1.116h-1.352Z" transform="translate(-39.484 -11.946)" fill="#202155"/><path d="M203,57.628l-2.08,3.381v2.152a.543.543,0,1,1-1.086,0V60.989l-2.07-3.36a.743.743,0,0,1-.122-.389.513.513,0,0,1,.533-.513.545.545,0,0,1,.522.318l1.68,2.848,1.69-2.848a.569.569,0,0,1,.522-.318.515.515,0,0,1,.533.524.659.659,0,0,1-.123.378" transform="translate(-41.516 -11.916)" fill="#202155"/><path d="M208.679,63.11V57.393a.513.513,0,0,1,.523-.523h3.473a.488.488,0,0,1,.5.492.48.48,0,0,1-.5.481h-2.91v1.732h2.1a.471.471,0,1,1,0,.942h-2.1v2.142H212.8a.48.48,0,0,1,.5.481.488.488,0,0,1-.5.492h-3.6a.512.512,0,0,1-.523-.522" transform="translate(-43.834 -11.946)" fill="#202155"/><path d="M223.735,63.254a.5.5,0,0,1-.5.491.585.585,0,0,1-.482-.276l-1.773-2.449h-1.373v2.172a.543.543,0,1,1-1.086,0V57.424a.539.539,0,0,1,.554-.554h1.905a2.073,2.073,0,0,1,2.3,2.07,1.964,1.964,0,0,1-1.189,1.864l1.486,2.039a.663.663,0,0,1,.164.411m-4.129-3.2h1.352a1.07,1.07,0,0,0,1.2-1.107,1.082,1.082,0,0,0-1.2-1.116h-1.352Z" transform="translate(-45.901 -11.946)" fill="#202155"/><path d="M230.392,54.713a.717.717,0,1,1-.716-.7.708.708,0,0,1,.716.7m-1.27,7.879V56.711a.543.543,0,1,1,1.086,0v5.881a.543.543,0,1,1-1.086,0" transform="translate(-48.094 -11.347)" fill="#202155"/><path d="M93.906,17.915V37.049A2.3,2.3,0,0,1,91.6,39.427a2.878,2.878,0,0,1-2.344-1.434L78.969,24.771V37.014a2.362,2.362,0,1,1-4.722,0V17.88A2.322,2.322,0,0,1,76.555,15.5c1.19,0,1.714.665,2.414,1.54L89.218,30.158l-.035-12.243a2.362,2.362,0,1,1,4.722,0" transform="translate(-15.596 -3.256)" fill="#202155"/><path d="M128.7,27.465A12.282,12.282,0,1,1,116.385,15.5,12.038,12.038,0,0,1,128.7,27.465m-19.693,0a7.418,7.418,0,1,0,14.831,0,7.418,7.418,0,1,0-14.831,0" transform="translate(-21.875 -3.256)" fill="#202155"/><path d="M158.3,17.774a2.662,2.662,0,0,1-.28,1.26l-7.87,18.783a2.292,2.292,0,0,1-2.239,1.609,2.262,2.262,0,0,1-2.239-1.609l-7.906-18.783a3.144,3.144,0,0,1-.28-1.26,2.286,2.286,0,0,1,2.344-2.273,2.317,2.317,0,0,1,2.2,1.679l5.877,14.446,5.841-14.446A2.39,2.39,0,0,1,156,15.5a2.255,2.255,0,0,1,2.309,2.273" transform="translate(-28.881 -3.256)" fill="#202155"/><path d="M184.08,37.153a2.255,2.255,0,0,1-2.309,2.273,2.39,2.39,0,0,1-2.238-1.679l-.98-2.379h-9.759l-.98,2.379a2.319,2.319,0,0,1-2.2,1.679,2.285,2.285,0,0,1-2.343-2.273,3.923,3.923,0,0,1,.28-1.26l7.906-18.783a2.362,2.362,0,0,1,4.477,0l7.87,18.783a3.185,3.185,0,0,1,.28,1.26m-13.747-5.667h6.646l-3.288-9.025Z" transform="translate(-34.295 -3.256)" fill="#202155"/><path d="M214.593,27.506c0,6.856-5.177,11.613-12.558,11.613h-5.177a2.334,2.334,0,0,1-2.413-2.413V18.446a2.334,2.334,0,0,1,2.413-2.413h5.177c7.486,0,12.558,4.616,12.558,11.473M199.167,20.3V34.852H202c4.653,0,7.765-2.9,7.765-7.346S206.793,20.3,202,20.3Z" transform="translate(-40.844 -3.368)" fill="#202155"/><path d="M243.249,37.153a2.255,2.255,0,0,1-2.309,2.273,2.39,2.39,0,0,1-2.238-1.679l-.98-2.379h-9.759l-.98,2.379a2.319,2.319,0,0,1-2.2,1.679,2.285,2.285,0,0,1-2.343-2.273,3.922,3.922,0,0,1,.28-1.26l7.906-18.783a2.362,2.362,0,0,1,4.477,0l7.87,18.783a3.185,3.185,0,0,1,.28,1.26M229.5,31.486h6.646l-3.288-9.025Z" transform="translate(-46.724 -3.256)" fill="#202155"/><path d="M273.273,17.915V37.049a2.3,2.3,0,0,1-2.309,2.378,2.878,2.878,0,0,1-2.344-1.434L258.336,24.771V37.014a2.362,2.362,0,1,1-4.722,0V17.88a2.322,2.322,0,0,1,2.308-2.379c1.19,0,1.714.665,2.414,1.54l10.249,13.117-.035-12.243a2.362,2.362,0,1,1,4.722,0" transform="translate(-53.273 -3.256)" fill="#202155"/></g></svg>