<svg xmlns="http://www.w3.org/2000/svg" width="21.79" height="25.994" viewBox="0 0 21.79 25.994"><path d="M196.893,1544.48l4.058-.487,1.608,3.758a.6.6,0,0,0,.514.362h.036a.6.6,0,0,0,.518-.3l3.491-6.048,3.492,6.048a.6.6,0,0,0,.518.3h.036a.6.6,0,0,0,.514-.362l1.608-3.758,4.057.487a.593.593,0,0,0,.571-.265.6.6,0,0,0,.019-.629l-3.7-6.41a9.212,9.212,0,1,0-14.228,0l-3.7,6.41a.6.6,0,0,0,.019.629.591.591,0,0,0,.571.265m16.091-1.728a.594.594,0,0,0-.621.359l-1.313,3.071-3.24-5.611.037-.063a9.166,9.166,0,0,0,5.525-2.429l2.928,5.072Zm-5.865-19.435a8.015,8.015,0,1,1-8.015,8.015,8.024,8.024,0,0,1,8.015-8.015m-6.252,14.76a9.165,9.165,0,0,0,5.524,2.429l.037.063-3.239,5.611-1.314-3.071a.592.592,0,0,0-.621-.359l-3.316.4Z" transform="translate(-196.224 -1522.12)" fill="#202155"/><path d="M315.958,1611.927a5.459,5.459,0,1,0-5.459-5.458,5.465,5.465,0,0,0,5.459,5.458m0-9.72a4.262,4.262,0,1,1-4.262,4.262,4.267,4.267,0,0,1,4.262-4.262" transform="translate(-305.062 -1597.257)" fill="#202155"/></svg>