<svg xmlns="http://www.w3.org/2000/svg" width="22.306" height="20" viewBox="0 0 22.306 20">
  <path id="Path_36" data-name="Path 36" d="M10.923,17h1.115v1a1.122,1.122,0,0,0,2.231,0V17h1.115a1.006,1.006,0,1,0,0-2H14.268V14a1.122,1.122,0,0,0-2.231,0v1H10.923a1.006,1.006,0,1,0,0,2ZM20.96,6H18.73V5a3.187,3.187,0,0,0-3.346-3H10.923A3.187,3.187,0,0,0,7.577,5V6H5.346A3.187,3.187,0,0,0,2,9V19a3.187,3.187,0,0,0,3.346,3H20.96a3.187,3.187,0,0,0,3.346-3V9A3.187,3.187,0,0,0,20.96,6ZM9.807,5a1.062,1.062,0,0,1,1.115-1h4.461A1.062,1.062,0,0,1,16.5,5V6H9.807ZM22.076,19a1.062,1.062,0,0,1-1.115,1H5.346a1.062,1.062,0,0,1-1.115-1V12H22.076Zm0-9H4.231V9A1.062,1.062,0,0,1,5.346,8H20.96a1.062,1.062,0,0,1,1.115,1Z" transform="translate(-2 -2)" fill="#f15a29"/>
</svg>
