<svg xmlns="http://www.w3.org/2000/svg" xmlns:xlink="http://www.w3.org/1999/xlink" width="11.446" height="15" viewBox="0 0 11.446 15"><defs><clipPath id="a"><rect width="11.446" height="15" fill="#fff"/></clipPath></defs><g clip-path="url(#a)"><path d="M3.989,14.745a5.661,5.661,0,0,1-3.983-5.8A5.233,5.233,0,0,1,1.676,5.188a.717.717,0,0,1,.6-.181c.39.063.259.751.2,1.141a1.886,1.886,0,0,0,1.51,2.238c2.14,0-1.469-4.278,2.28-8.284a.33.33,0,0,1,.561.265C6.739,2.5,9.489,4.708,10.373,5.938a5.733,5.733,0,0,1-6.384,8.807" transform="translate(0 0)" fill="#fff"/></g></svg>