<svg id="Outline" xmlns="http://www.w3.org/2000/svg" width="26.768" height="12" viewBox="0 0 26.768 12">
  <path id="Path_38" data-name="Path 38" d="M20.845,5H18.614a2.125,2.125,0,0,0-2.231,2v3H9.692V7A2.125,2.125,0,0,0,7.461,5H5.231A2.125,2.125,0,0,0,3,7v8a2.125,2.125,0,0,0,2.231,2H7.461a2.125,2.125,0,0,0,2.231-2V12h6.692v3a2.125,2.125,0,0,0,2.231,2h2.231a2.125,2.125,0,0,0,2.231-2V7a2.125,2.125,0,0,0-2.231-2Z" transform="translate(0.346 -5.002)" fill="#f15a29"/>
  <path id="Path_39" data-name="Path 39" d="M22,9h2.231v4H22Z" transform="translate(2.537 -5.002)" fill="#f15a29"/>
  <path id="Path_40" data-name="Path 40" d="M0,9H2.231v4H0Z" transform="translate(0 -5.002)" fill="#f15a29"/>
</svg>
