<svg xmlns="http://www.w3.org/2000/svg" width="24.915" height="26.034" viewBox="0 0 24.915 26.034"><path d="M1755.333,104.553a.6.6,0,0,0,.3.518l7.792,4.5c.014.008.03.011.044.018s.032.014.049.02a.53.53,0,0,0,.412,0c.017-.006.033-.012.049-.02s.03-.01.045-.018l7.792-4.5a.6.6,0,0,0,.3-.518V96.979c0-.016-.005-.032-.006-.048s0-.035-.007-.053a.6.6,0,0,0-.066-.2v0l0,0a.594.594,0,0,0-.137-.155.535.535,0,0,0-.043-.033c-.013-.009-.024-.021-.038-.029l-7.792-4.5a.6.6,0,0,0-.6,0l-7.792,4.5c-.014.008-.024.02-.037.029s-.029.022-.044.034a.6.6,0,0,0-.136.155l0,0s0,0,0,0a.6.6,0,0,0-.066.2c0,.018-.005.034-.007.052s-.006.031-.006.048Zm1.2-6.537,6.595,3.808v6.192l-6.595-3.808Zm3.3-2.595,6.594,3.808-2.7,1.558-6.594-3.808Zm4.494,12.594v-6.192l3.592-2.074h0l3-1.733v6.192Zm-.6-14.843,6.595,3.807-2.7,1.558-6.595-3.808Z" transform="translate(-1751.63 -87.511)" fill="#202155"/><path d="M1678.078,6.9a.575.575,0,0,0,.045.137.552.552,0,0,0,.032.066.59.59,0,0,0,.09.11.567.567,0,0,0,.057.05.529.529,0,0,0,.059.052.561.561,0,0,0,.065.022.769.769,0,0,0,.216.05c.007,0,.014,0,.021,0a.558.558,0,0,0,.083-.006l4.088-.565a.6.6,0,1,0-.163-1.185l-2.784.385a11.809,11.809,0,1,1,3.674,17.239.6.6,0,0,0-.6,1.037,12.825,12.825,0,0,0,6.43,1.734,13.016,13.016,0,1,0-10.35-20.868l-.351-2.538a.6.6,0,0,0-1.185.164l.565,4.088c0,.009.007.017.009.026" transform="translate(-1677.498 0.005)" fill="#202155"/></svg>