<svg xmlns="http://www.w3.org/2000/svg" xmlns:xlink="http://www.w3.org/1999/xlink" width="14" height="14" viewBox="0 0 14 14"><defs><clipPath id="a"><rect width="14" height="14" fill="#fff"/></clipPath></defs><g clip-path="url(#a)"><path d="M12.25,14a1.75,1.75,0,1,0-1.75-1.75A1.749,1.749,0,0,0,12.25,14m0-5.25A1.75,1.75,0,1,0,10.5,7a1.749,1.749,0,0,0,1.75,1.75m0-5.25A1.75,1.75,0,1,0,10.5,1.75,1.749,1.749,0,0,0,12.25,3.5M7,14a1.75,1.75,0,1,0-1.75-1.75A1.749,1.749,0,0,0,7,14M7,8.75A1.75,1.75,0,1,0,5.25,7,1.749,1.749,0,0,0,7,8.75M7,3.5A1.75,1.75,0,1,0,5.25,1.75,1.749,1.749,0,0,0,7,3.5M1.75,14A1.75,1.75,0,1,0,0,12.25,1.749,1.749,0,0,0,1.75,14m0-5.25A1.75,1.75,0,1,0,0,7,1.749,1.749,0,0,0,1.75,8.75m0-5.25A1.75,1.75,0,1,0,0,1.75,1.749,1.749,0,0,0,1.75,3.5" fill="#fff" fill-rule="evenodd"/></g></svg>