<svg xmlns="http://www.w3.org/2000/svg" xmlns:xlink="http://www.w3.org/1999/xlink" width="10" height="10" viewBox="0 0 10 10"><defs><clipPath id="a"><rect width="10" height="10" fill="#202252"/></clipPath></defs><g clip-path="url(#a)"><path d="M7.619,11.031H1.9A1.907,1.907,0,0,1,0,9.126V3.412a1.907,1.907,0,0,1,1.9-1.9H3.333a.952.952,0,1,1,0,1.9H1.9V9.126H7.619V7.7a.952.952,0,1,1,1.9,0V9.126a1.907,1.907,0,0,1-1.9,1.9" transform="translate(0 -1.031)" fill="#202252"/><path d="M20.386,4.762a.952.952,0,0,1-.674-.279L16.855,1.626A.952.952,0,0,1,17.529,0h1.9a1.907,1.907,0,0,1,1.9,1.9v1.9a.953.953,0,0,1-.952.952" transform="translate(-11.338 0)" fill="#202252"/><path d="M14.516,6.323A.952.952,0,0,1,13.842,4.7l3.529-3.529a.952.952,0,1,1,1.347,1.347L15.189,6.044a.949.949,0,0,1-.673.279" transform="translate(-9.277 -0.608)" fill="#202252"/></g></svg>