<svg xmlns="http://www.w3.org/2000/svg" width="14.999" height="14" viewBox="0 0 14.999 14">
  <g id="Group_75732" data-name="Group 75732" transform="translate(0)">
    <path id="Path_11657" data-name="Path 11657" d="M0,1.466A1.516,1.516,0,0,0,.405,2.505L4.652,7,.405,11.494a1.531,1.531,0,0,0,0,2.075,1.332,1.332,0,0,0,1.961,0L7.592,8.037a1.523,1.523,0,0,0,0-2.073L2.366.431a1.33,1.33,0,0,0-1.961,0A1.51,1.51,0,0,0,0,1.466" transform="translate(7.999 14) rotate(180)" fill="#202252" fill-rule="evenodd"/>
    <path id="Path_11658" data-name="Path 11658" d="M0,1.466A1.516,1.516,0,0,0,.405,2.505L4.652,7,.405,11.494a1.531,1.531,0,0,0,0,2.075,1.332,1.332,0,0,0,1.961,0L7.592,8.037a1.523,1.523,0,0,0,0-2.073L2.366.431a1.33,1.33,0,0,0-1.961,0A1.51,1.51,0,0,0,0,1.466" transform="translate(14.999 14) rotate(180)" fill="#202252" fill-rule="evenodd"/>
  </g>
</svg>
