<svg xmlns="http://www.w3.org/2000/svg" xmlns:xlink="http://www.w3.org/1999/xlink" width="12.31" height="14" viewBox="0 0 12.31 14"><defs><clipPath id="a"><rect width="12.31" height="14" fill="#fff"/></clipPath></defs><g clip-path="url(#a)"><path d="M0,11.948V10.942A2.013,2.013,0,0,1,1.166,9.217a13.385,13.385,0,0,1,9.978,0,2.013,2.013,0,0,1,1.166,1.725v1.006A2.052,2.052,0,0,1,10.258,14H2.052A2.052,2.052,0,0,1,0,11.948M6.155,0A3.42,3.42,0,1,0,9.574,3.419,3.419,3.419,0,0,0,6.155,0" fill="#fff"/></g></svg>