<svg xmlns="http://www.w3.org/2000/svg" xmlns:xlink="http://www.w3.org/1999/xlink" width="15" height="15" viewBox="0 0 15 15"><defs><clipPath id="a"><rect width="15" height="15" fill="#202252"/></clipPath></defs><g clip-path="url(#a)"><path d="M22.82,23.61a.785.785,0,0,1-.558-.232l-3.948-3.947a.789.789,0,0,1,1.116-1.116l3.947,3.948a.79.79,0,0,1-.558,1.347" transform="translate(-8.61 -8.61)" fill="#202252"/><path d="M6.316,0a6.316,6.316,0,1,0,6.316,6.316A6.324,6.324,0,0,0,6.316,0M8.685,7.106H7.106V8.685a.79.79,0,0,1-1.579,0V7.106H3.948a.79.79,0,0,1,0-1.579H5.527V3.948a.79.79,0,1,1,1.579,0V5.527H8.685a.79.79,0,0,1,0,1.579" transform="translate(0 0)" fill="#202252"/></g></svg>