<svg xmlns="http://www.w3.org/2000/svg" xmlns:xlink="http://www.w3.org/1999/xlink" width="50" height="60" viewBox="0 0 50 60">
  <defs>
    <clipPath id="clip-path">
      <rect id="Rectangle_616" data-name="Rectangle 616" width="50" height="60" fill="none"/>
    </clipPath>
  </defs>
  <g id="Group_942" data-name="Group 942" clip-path="url(#clip-path)">
    <path id="Path_618" data-name="Path 618" d="M40.064,60H9.938A9.949,9.949,0,0,1,0,50.062V9.938A9.949,9.949,0,0,1,9.938,0H40.064A9.947,9.947,0,0,1,50,9.938V50.062A9.947,9.947,0,0,1,40.064,60M9.938,4A5.945,5.945,0,0,0,4,9.938V50.062A5.945,5.945,0,0,0,9.938,56H40.064A5.945,5.945,0,0,0,46,50.062V9.938A5.945,5.945,0,0,0,40.064,4Z" fill="#fff"/>
    <path id="Path_619" data-name="Path 619" d="M24,20H10A6,6,0,0,1,10,8H24a6,6,0,0,1,0,12M10,12a2,2,0,0,0,0,4H24a2,2,0,0,0,0-4Z" transform="translate(4 8)" fill="#fff"/>
    <path id="Path_620" data-name="Path 620" d="M8,20H6a2,2,0,0,1,0-4H8a2,2,0,0,1,0,4" transform="translate(4 16)" fill="#fff"/>
    <path id="Path_621" data-name="Path 621" d="M13,20H11a2,2,0,0,1,0-4h2a2,2,0,0,1,0,4" transform="translate(9 16)" fill="#fff"/>
    <path id="Path_622" data-name="Path 622" d="M18,20H16a2,2,0,0,1,0-4h2a2,2,0,0,1,0,4" transform="translate(14 16)" fill="#fff"/>
    <path id="Path_623" data-name="Path 623" d="M8,24H6a2,2,0,0,1,0-4H8a2,2,0,0,1,0,4" transform="translate(4 20)" fill="#fff"/>
    <path id="Path_624" data-name="Path 624" d="M13,24H11a2,2,0,0,1,0-4h2a2,2,0,0,1,0,4" transform="translate(9 20)" fill="#fff"/>
    <path id="Path_625" data-name="Path 625" d="M18,24H16a2,2,0,0,1,0-4h2a2,2,0,0,1,0,4" transform="translate(14 20)" fill="#fff"/>
    <path id="Path_626" data-name="Path 626" d="M8,28H6a2,2,0,0,1,0-4H8a2,2,0,0,1,0,4" transform="translate(4 24)" fill="#fff"/>
    <path id="Path_627" data-name="Path 627" d="M13,28H11a2,2,0,0,1,0-4h2a2,2,0,0,1,0,4" transform="translate(9 24)" fill="#fff"/>
    <path id="Path_628" data-name="Path 628" d="M18,28H16a2,2,0,0,1,0-4h2a2,2,0,0,1,0,4" transform="translate(14 24)" fill="#fff"/>
    <path id="Path_629" data-name="Path 629" d="M21,60a2,2,0,0,1-2-2V2a2,2,0,0,1,4,0V58a2,2,0,0,1-2,2" transform="translate(19)" fill="#fff"/>
    <path id="Path_630" data-name="Path 630" d="M28,8H6A2,2,0,0,1,6,4H28a2,2,0,0,1,0,4" transform="translate(4 4)" fill="#fff"/>
  </g>
</svg>
