<svg id="Group_938" data-name="Group 938" xmlns="http://www.w3.org/2000/svg" xmlns:xlink="http://www.w3.org/1999/xlink" width="66.667" height="60" viewBox="0 0 66.667 60">
  <defs>
    <clipPath id="clip-path">
      <rect id="Rectangle_536" data-name="Rectangle 536" width="66.667" height="60" fill="none"/>
    </clipPath>
  </defs>
  <g id="Group_820" data-name="Group 820" clip-path="url(#clip-path)">
    <path id="Path_480" data-name="Path 480" d="M59.791,48.889H6.876A6.883,6.883,0,0,1,0,42.013V6.876A6.883,6.883,0,0,1,6.876,0H59.791a6.882,6.882,0,0,1,6.876,6.876V42.013a6.882,6.882,0,0,1-6.876,6.876M6.876,4.444A2.432,2.432,0,0,0,4.444,6.876V42.013a2.432,2.432,0,0,0,2.431,2.431H59.791a2.432,2.432,0,0,0,2.431-2.431V6.876a2.432,2.432,0,0,0-2.431-2.431Z" fill="#fff"/>
    <path id="Path_481" data-name="Path 481" d="M33.444,29.444H11.222a2.222,2.222,0,1,1,0-4.444H33.444a2.222,2.222,0,0,1,0,4.444" transform="translate(11 30.556)" fill="#fff"/>
    <path id="Path_482" data-name="Path 482" d="M13.225,34.334a2.259,2.259,0,0,1-.54-.067,2.222,2.222,0,0,1-1.618-2.693l2.222-8.889A2.222,2.222,0,0,1,17.6,23.761l-2.222,8.889a2.222,2.222,0,0,1-2.153,1.684" transform="translate(13.444 25.666)" fill="#fff"/>
    <path id="Path_483" data-name="Path 483" d="M20.443,34.334a2.222,2.222,0,0,1-2.153-1.684L16.067,23.76a2.222,2.222,0,1,1,4.311-1.076L22.6,31.574a2.222,2.222,0,0,1-1.618,2.693,2.259,2.259,0,0,1-.54.067" transform="translate(19.555 25.666)" fill="#fff"/>
    <path id="Path_484" data-name="Path 484" d="M26.389,30.222H15.833A5.841,5.841,0,0,1,10,24.389V10.222A2.22,2.22,0,0,1,12.222,8H30a2.22,2.22,0,0,1,2.222,2.222V24.389a5.841,5.841,0,0,1-5.833,5.833M14.444,12.444V24.389a1.389,1.389,0,0,0,1.389,1.389H26.389a1.389,1.389,0,0,0,1.389-1.389V12.444Z" transform="translate(12.222 9.778)" fill="#fff"/>
    <path id="Path_485" data-name="Path 485" d="M23.111,19.556a2.22,2.22,0,0,1-2.222-2.222V10.667a2.222,2.222,0,1,0-4.444,0v6.667a2.222,2.222,0,1,1-4.444,0V10.667a6.667,6.667,0,1,1,13.333,0v6.667a2.22,2.22,0,0,1-2.222,2.222" transform="translate(14.667 4.889)" fill="#fff"/>
  </g>
</svg>
