<svg xmlns="http://www.w3.org/2000/svg" xmlns:xlink="http://www.w3.org/1999/xlink" width="52" height="60" viewBox="0 0 52 60">
  <defs>
    <clipPath id="clip-path">
      <rect id="Rectangle_535" data-name="Rectangle 535" width="52" height="60" fill="none"/>
    </clipPath>
  </defs>
  <g id="Group_937" data-name="Group 937" transform="translate(0 0)">
    <g id="Group_818" data-name="Group 818" transform="translate(0 0)" clip-path="url(#clip-path)">
      <path id="Path_471" data-name="Path 471" d="M46,60H6a6.007,6.007,0,0,1-6-6V20a2,2,0,0,1,.172-.814L7.516,2.663A4.5,4.5,0,0,1,11.616,0h28.77a4.486,4.486,0,0,1,4.1,2.664l7.344,16.522A2,2,0,0,1,52,20V54a6.007,6.007,0,0,1-6,6M4,20.425V54a2,2,0,0,0,2,2H46a2,2,0,0,0,2-2V20.425L40.828,4.289A.482.482,0,0,0,40.386,4H11.616a.489.489,0,0,0-.446.29Z" transform="translate(0 0.001)" fill="#fff"/>
      <path id="Path_472" data-name="Path 472" d="M10,21A10.011,10.011,0,0,1,0,11a2,2,0,0,1,4,0,6,6,0,0,0,12,0,2,2,0,0,1,4,0A10.011,10.011,0,0,1,10,21" transform="translate(0 9)" fill="#fff"/>
      <path id="Path_473" data-name="Path 473" d="M18,21A10.011,10.011,0,0,1,8,11a2,2,0,0,1,4,0,6,6,0,0,0,12,0,2,2,0,0,1,4,0A10.011,10.011,0,0,1,18,21" transform="translate(8 9)" fill="#fff"/>
      <path id="Path_474" data-name="Path 474" d="M26,21A10.011,10.011,0,0,1,16,11a2,2,0,0,1,4,0,6,6,0,0,0,12,0,2,2,0,0,1,4,0A10.011,10.011,0,0,1,26,21" transform="translate(16 9)" fill="#fff"/>
      <path id="Path_475" data-name="Path 475" d="M18,41H6a2,2,0,0,1-2-2V26.25A7.258,7.258,0,0,1,11.25,19h1.5A7.258,7.258,0,0,1,20,26.25V39a2,2,0,0,1-2,2M8,37h8V26.25A3.254,3.254,0,0,0,12.75,23h-1.5A3.254,3.254,0,0,0,8,26.25Z" transform="translate(4 19)" fill="#fff"/>
      <path id="Path_476" data-name="Path 476" d="M25,29H17a2,2,0,0,1-2-2V19a2,2,0,0,1,2-2h8a2,2,0,0,1,2,2v8a2,2,0,0,1-2,2m-6-4h4V21H19Z" transform="translate(15 17)" fill="#fff"/>
      <path id="Path_477" data-name="Path 477" d="M10,22a2.064,2.064,0,0,1-.222-.012A2,2,0,0,1,8.012,19.78l2-18a2,2,0,0,1,3.976.44l-2,18A2,2,0,0,1,10,22" transform="translate(8 0)" fill="#fff"/>
      <path id="Path_478" data-name="Path 478" d="M19,22a2,2,0,0,1-1.986-1.78l-2-18a2,2,0,0,1,3.976-.44l2,18a2,2,0,0,1-1.768,2.208A2.092,2.092,0,0,1,19,22" transform="translate(15 -0.001)" fill="#fff"/>
      <path id="Path_479" data-name="Path 479" d="M49.738,13H2A2,2,0,0,1,2,9H49.738a2,2,0,0,1,0,4" transform="translate(0 9)" fill="#fff"/>
    </g>
  </g>
</svg>
