<svg xmlns="http://www.w3.org/2000/svg" width="16.254" height="19.105" viewBox="0 0 16.254 19.105">
  <g id="Group_846" data-name="Group 846" transform="translate(0 0)">
    <path id="Path_571" data-name="Path 571" d="M21.155,335.339a2.335,2.335,0,0,1-1.179-.318c-2.091-1.216-6.955-4.69-6.955-10.652a8.135,8.135,0,0,1,8.171-8.134A7.894,7.894,0,0,1,27.183,319a8.573,8.573,0,0,1,2.014,6.778c-.695,5.144-5.031,8.178-6.863,9.244a2.352,2.352,0,0,1-1.178.317m0-17.5a6.533,6.533,0,0,0-6.533,6.534c0,5.132,4.308,8.192,6.16,9.268a.744.744,0,0,0,.748,0c1.628-.947,5.481-3.629,6.082-8.074a6.976,6.976,0,0,0-1.636-5.514,6.315,6.315,0,0,0-4.791-2.216Z" transform="translate(-13.021 -316.234)" fill="#f15a29"/>
    <path id="Path_572" data-name="Path 572" d="M40.788,349.911a4.467,4.467,0,1,1,4.467-4.467,4.472,4.472,0,0,1-4.467,4.467m0-7.334a2.867,2.867,0,1,0,2.867,2.867,2.871,2.871,0,0,0-2.867-2.867" transform="translate(-32.686 -337.117)" fill="#f15a29"/>
  </g>
</svg>
