<svg xmlns="http://www.w3.org/2000/svg" width="15.638" height="19.457" viewBox="0 0 15.638 19.457">
  <g id="Group_965" data-name="Group 965" transform="translate(462 -7903.076)">
    <path id="Path_640" data-name="Path 640" d="M15.059,42.2h-1.5a.083.083,0,0,1-.077-.077V40.654a.538.538,0,0,0-.54-.578.568.568,0,0,0-.579.578v1.5a.084.084,0,0,1-.077.078H10.816a.517.517,0,0,0-.578.54.593.593,0,0,0,.578.578h1.5a.084.084,0,0,1,.078.077v1.505a.526.526,0,0,0,.54.54.593.593,0,0,0,.578-.579v-1.5a.083.083,0,0,1,.077-.077h1.5a.552.552,0,0,0,.54-.54.537.537,0,0,0-.579-.579" transform="translate(-462 7863)" fill="#202155"/>
    <path id="Path_641" data-name="Path 641" d="M0,57.188v-1.15a2.3,2.3,0,0,1,1.333-1.971,15.3,15.3,0,0,1,11.4,0,2.3,2.3,0,0,1,1.333,1.971v1.15a2.346,2.346,0,0,1-2.345,2.345H2.345A2.346,2.346,0,0,1,0,57.188M7.034,43.533a3.908,3.908,0,1,0,3.907,3.907,3.908,3.908,0,0,0-3.907-3.907" transform="translate(-462 7863)" fill="#202155"/>
  </g>
</svg>
