<svg xmlns="http://www.w3.org/2000/svg" xmlns:xlink="http://www.w3.org/1999/xlink" width="281.725" height="62" viewBox="0 0 281.725 62">
  <defs>
    <clipPath id="clip-path">
      <rect id="Rectangle_498" data-name="Rectangle 498" width="281.725" height="62" fill="none"/>
    </clipPath>
  </defs>
  <g id="Group_798" data-name="Group 798" clip-path="url(#clip-path)">
    <path id="Path_454" data-name="Path 454" d="M62,31A31,31,0,1,1,31,0,31,31,0,0,1,62,31" transform="translate(0 0.001)" fill="#fff"/>
    <path id="Path_455" data-name="Path 455" d="M47.96,55.609l-3.708,6.818h0l-3.32,6.127a2.474,2.474,0,0,1-.73.93l-.064.035a1.875,1.875,0,0,1-1.733-.47,2.144,2.144,0,0,1-.207-1.195l.226-19.8-3.872-3.069L34.33,67.555a8.925,8.925,0,0,0,.229,2.519,3.655,3.655,0,0,0,2.025,2.314,7.988,7.988,0,0,0,1.727.636,8.326,8.326,0,0,0,2.068.319,3.368,3.368,0,0,0,1.77-.452,6.113,6.113,0,0,0,2.287-2.7l3.813-6.986.027.005,2.791-5.139Z" transform="translate(-19.015 -24.919)" fill="#f15a29"/>
    <path id="Path_456" data-name="Path 456" d="M72.213,46.559l2.831-5.21h0l3.329-6.128c.416-.748.7-.92.788-.962a1.428,1.428,0,0,1,.918.016,1.368,1.368,0,0,1,.809.447.593.593,0,0,1,.078.147l.021.068a3.447,3.447,0,0,1,.112.991l-.2,17.514,3.869,3.067.205-20.28a9,9,0,0,0-.229-2.525c-.4-1.429-1.626-2.393-3.752-2.949a9.687,9.687,0,0,0-1.4-.272,3.728,3.728,0,0,0-2.439.41,6.128,6.128,0,0,0-2.288,2.692L71.089,40.5l-.027-.011L69.1,44.094Z" transform="translate(-38.282 -16.863)" fill="#f15a29"/>
    <path id="Path_457" data-name="Path 457" d="M193.566,38.247v24.5a2.947,2.947,0,0,1-2.957,3.046c-1.478,0-2.195-.851-3-1.837L174.439,47.026V62.7a3.024,3.024,0,1,1-6.047,0V38.2a2.973,2.973,0,0,1,2.955-3.045c1.524,0,2.2.851,3.091,1.971l13.125,16.8-.045-15.677a3.024,3.024,0,1,1,6.047,0" transform="translate(-93.285 -19.475)" fill="#fff"/>
    <path id="Path_458" data-name="Path 458" d="M267.636,50.477a15.728,15.728,0,1,1-15.767-15.32,15.415,15.415,0,0,1,15.767,15.32m-25.218,0c0,5.688,3.942,9.72,9.5,9.72,5.509,0,9.5-4.076,9.5-9.72s-3.987-9.721-9.5-9.721c-5.555,0-9.5,4.032-9.5,9.721" transform="translate(-130.843 -19.476)" fill="#fff"/>
    <path id="Path_459" data-name="Path 459" d="M338.481,38.067a3.4,3.4,0,0,1-.359,1.613L328.044,63.734a2.934,2.934,0,0,1-2.867,2.061,2.9,2.9,0,0,1-2.867-2.061L312.187,39.681a4.024,4.024,0,0,1-.359-1.613,2.927,2.927,0,0,1,3-2.911,2.967,2.967,0,0,1,2.822,2.151l7.526,18.5,7.48-18.5a3.061,3.061,0,0,1,2.867-2.151,2.888,2.888,0,0,1,2.957,2.911" transform="translate(-172.744 -19.475)" fill="#fff"/>
    <path id="Path_460" data-name="Path 460" d="M396.938,62.884a2.888,2.888,0,0,1-2.957,2.911,3.061,3.061,0,0,1-2.867-2.149L389.861,60.6h-12.5l-1.254,3.047a2.968,2.968,0,0,1-2.822,2.149,2.927,2.927,0,0,1-3-2.911,5.038,5.038,0,0,1,.359-1.613l10.124-24.053a3.024,3.024,0,0,1,5.734,0L396.579,61.27a4.069,4.069,0,0,1,.359,1.613m-17.6-7.257h8.511L383.634,44.07Z" transform="translate(-205.128 -19.475)" fill="#fff"/>
    <path id="Path_461" data-name="Path 461" d="M466.8,51.054c0,8.779-6.63,14.871-16.082,14.871h-6.63A2.989,2.989,0,0,1,441,62.834V39.452a2.988,2.988,0,0,1,3.09-3.091h6.63c9.586,0,16.082,5.912,16.082,14.693m-19.755-9.228V60.46h3.628c5.958,0,9.944-3.717,9.944-9.406s-3.807-9.228-9.944-9.228Z" transform="translate(-244.301 -20.143)" fill="#fff"/>
    <path id="Path_462" data-name="Path 462" d="M531.132,62.884a2.888,2.888,0,0,1-2.957,2.911,3.061,3.061,0,0,1-2.867-2.149L524.055,60.6h-12.5L510.3,63.646a2.968,2.968,0,0,1-2.823,2.149,2.927,2.927,0,0,1-3-2.911,5.037,5.037,0,0,1,.359-1.613l10.124-24.053a3.024,3.024,0,0,1,5.734,0L530.773,61.27a4.069,4.069,0,0,1,.359,1.613m-17.6-7.257h8.511L517.828,44.07Z" transform="translate(-279.468 -19.475)" fill="#fff"/>
    <path id="Path_463" data-name="Path 463" d="M600.367,38.247v24.5a2.947,2.947,0,0,1-2.957,3.046c-1.478,0-2.195-.851-3-1.837L581.24,47.026V62.7a3.024,3.024,0,1,1-6.047,0V38.2a2.973,2.973,0,0,1,2.955-3.045c1.524,0,2.2.851,3.091,1.971l13.125,16.8-.045-15.677a3.024,3.024,0,1,1,6.047,0" transform="translate(-318.641 -19.475)" fill="#fff"/>
  </g>
</svg>
