<svg xmlns="http://www.w3.org/2000/svg" width="20.316" height="13.87" viewBox="0 0 20.316 13.87">
  <path id="Path_574" data-name="Path 574" d="M17.323,952.248H2.993A2.993,2.993,0,0,0,0,955.239v7.886a2.95,2.95,0,0,0,.425,1.533,2.987,2.987,0,0,0,2.568,1.46h14.33a3,3,0,0,0,2.993-2.993v-7.886a2.993,2.993,0,0,0-2.993-2.991m-.51,1.6-5.759,3.8a1.612,1.612,0,0,1-1.787,0l-5.815-3.8ZM1.6,955.239a1.376,1.376,0,0,1,.145-.595l4.8,3.133-4.932,5.541a1.279,1.279,0,0,1-.015-.193Zm15.722,9.279H2.993a1.321,1.321,0,0,1-.44-.073l5.222-5.865.617.4a3.229,3.229,0,0,0,3.539,0l.609-.4,5.22,5.868a1.317,1.317,0,0,1-.438.073m-3.559-6.745,4.787-3.155a1.351,1.351,0,0,1,.164.621v7.886a1.279,1.279,0,0,1-.015.193Z" transform="translate(0 -952.248)" fill="#f15a29"/>
</svg>
