<svg xmlns="http://www.w3.org/2000/svg" xmlns:xlink="http://www.w3.org/1999/xlink" width="30" height="20" viewBox="0 0 30 20">
  <defs>
    <clipPath id="clip-path">
      <rect id="Rectangle_624" data-name="Rectangle 624" width="30" height="20" fill="#fff"/>
    </clipPath>
  </defs>
  <g id="Group_77469" data-name="Group 77469" transform="translate(0 0)">
    <g id="Group_77468" data-name="Group 77468" transform="translate(0 0)" clip-path="url(#clip-path)">
      <path id="Path_646" data-name="Path 646" d="M27.836,0H2.166A1.975,1.975,0,0,0,0,1.633V2.3A1.962,1.962,0,0,0,2.166,3.938H27.836A1.961,1.961,0,0,0,30,2.3V1.631A1.971,1.971,0,0,0,27.836,0" transform="translate(0 0.001)" fill="#fff"/>
      <path id="Path_647" data-name="Path 647" d="M27.836,4.933H2.166A1.975,1.975,0,0,0,0,6.566v.663A1.962,1.962,0,0,0,2.166,8.871H27.836A1.961,1.961,0,0,0,30,7.228V6.564a1.971,1.971,0,0,0-2.164-1.631" transform="translate(0 3.098)" fill="#fff"/>
      <path id="Path_648" data-name="Path 648" d="M27.829,9.867H2.166A1.975,1.975,0,0,0,0,11.5v.663A1.962,1.962,0,0,0,2.166,13.8H27.829a1.961,1.961,0,0,0,2.164-1.643V11.5a1.971,1.971,0,0,0-2.164-1.631" transform="translate(0 6.196)" fill="#fff"/>
    </g>
  </g>
</svg>
