<svg xmlns="http://www.w3.org/2000/svg" width="18.436" height="18.361" viewBox="0 0 18.436 18.361">
  <g id="Group_847" data-name="Group 847" transform="translate(0 0)">
    <path id="Path_568" data-name="Path 568" d="M21.126,18.383c-.037,0-.074,0-.111,0A16.225,16.225,0,0,1,6.029,3.56a1.654,1.654,0,0,1,.478-1.3L8.254.508A1.7,1.7,0,0,1,9.508.027a1.654,1.654,0,0,1,1.2.61l3.028,3.731a1.648,1.648,0,0,1-.116,2.211l-.826.826a10.392,10.392,0,0,0,4.245,4.268l.87-.814a1.649,1.649,0,0,1,2.209-.114l3.732,3.028a1.651,1.651,0,0,1,.128,2.451L22.3,17.9a1.662,1.662,0,0,1-1.174.483M9.462,1.645,7.639,3.388A14.594,14.594,0,0,0,21.122,16.783l1.722-1.692a.049.049,0,0,0,.015-.038l-3.751-3.066-.875.809a1.662,1.662,0,0,1-1.96.283,12.312,12.312,0,0,1-4.887-4.83,1.66,1.66,0,0,1,.274-1.978l.826-.825Z" transform="translate(-6.023 -0.021)" fill="#f15a29"/>
    <path id="Path_569" data-name="Path 569" d="M70.069,30.308a.8.8,0,0,1-.776-.606,4.172,4.172,0,0,0-3.038-3.037.8.8,0,0,1,.388-1.553,5.774,5.774,0,0,1,4.2,4.2.8.8,0,0,1-.777.994" transform="translate(-56.35 -21.174)" fill="#f15a29"/>
    <path id="Path_570" data-name="Path 570" d="M73.983,9.132a.8.8,0,0,1-.792-.691,8.041,8.041,0,0,0-6.849-6.849A.8.8,0,0,1,66.56.006a9.647,9.647,0,0,1,8.217,8.217.8.8,0,0,1-.684.9.751.751,0,0,1-.11.007" transform="translate(-56.352 0.002)" fill="#f15a29"/>
  </g>
</svg>
