<svg xmlns="http://www.w3.org/2000/svg" xmlns:xlink="http://www.w3.org/1999/xlink" width="59.996" height="60" viewBox="0 0 59.996 60">
  <defs>
    <clipPath id="clip-path">
      <rect id="Rectangle_615" data-name="Rectangle 615" width="59.996" height="60" fill="none"/>
    </clipPath>
  </defs>
  <g id="Group_941" data-name="Group 941" clip-path="url(#clip-path)">
    <path id="Path_614" data-name="Path 614" d="M29.875,28.219a2.016,2.016,0,1,1,0-4.031,10.079,10.079,0,1,0-7.125-2.951,2.015,2.015,0,1,1-2.85,2.85,14.107,14.107,0,1,1,9.975,4.132" transform="translate(16.012 0.001)" fill="#fff"/>
    <path id="Path_615" data-name="Path 615" d="M19.683,53.906a7.994,7.994,0,0,1-5.668-2.344L2.343,39.887a8.024,8.024,0,0,1,0-11.334L23.424,7.469A4.992,4.992,0,0,1,26.974,6H41.9A6.013,6.013,0,0,1,47.9,12V26.56a5.938,5.938,0,0,1-1.731,4.178L25.349,51.562a7.989,7.989,0,0,1-5.666,2.344m7.291-43.875a.982.982,0,0,0-.7.29L5.193,31.405a3.985,3.985,0,0,0,0,5.63L16.865,48.71a3.99,3.99,0,0,0,5.634,0L43.321,27.888a1.888,1.888,0,0,0,.55-1.328V12A1.977,1.977,0,0,0,41.9,10.031Z" transform="translate(-0.001 6.095)" fill="#fff"/>
    <path id="Path_616" data-name="Path 616" d="M8.781,28.125a2.016,2.016,0,0,1-1.425-3.441L19.45,12.591a2.015,2.015,0,0,1,2.85,2.85L10.206,27.535a2.01,2.01,0,0,1-1.425.591" transform="translate(6.871 12.188)" fill="#fff"/>
    <path id="Path_617" data-name="Path 617" d="M11.781,31.125a2.016,2.016,0,0,1-1.425-3.441L22.45,15.591a2.015,2.015,0,1,1,2.85,2.85L13.206,30.535a2.01,2.01,0,0,1-1.425.591" transform="translate(9.918 15.235)" fill="#fff"/>
  </g>
</svg>
