<svg xmlns="http://www.w3.org/2000/svg" xmlns:xlink="http://www.w3.org/1999/xlink" width="20" height="40.414" viewBox="0 0 20 40.414">
  <defs>
    <clipPath id="clip-path">
      <rect id="Rectangle_443" data-name="Rectangle 443" width="20" height="40.414" fill="#fff"/>
    </clipPath>
  </defs>
  <g id="Group_751" data-name="Group 751" transform="translate(-784 -305)">
    <g id="Group_750" data-name="Group 750" transform="translate(784 305)">
      <g id="Group_749" data-name="Group 749" clip-path="url(#clip-path)">
        <path id="Path_424" data-name="Path 424" d="M20,24.066h0V8.453a7.333,7.333,0,0,0-.8-3.33,8.989,8.989,0,0,0-3.647-3.706A11.3,11.3,0,0,0,10,0,10.972,10.972,0,0,0,2.971,2.437,8.553,8.553,0,0,0,.8,5.123,7.338,7.338,0,0,0,0,8.453V24.066A7.336,7.336,0,0,0,.8,27.4,8.987,8.987,0,0,0,4.452,31.1,11.3,11.3,0,0,0,10,32.518a10.974,10.974,0,0,0,7.029-2.438A8.557,8.557,0,0,0,19.2,27.4a7.337,7.337,0,0,0,.8-3.33M14.921,29.99A10.023,10.023,0,0,1,10,31.242,9.7,9.7,0,0,1,3.789,29.1a7.287,7.287,0,0,1-1.846-2.283,6.056,6.056,0,0,1-.667-2.753V8.453A6.059,6.059,0,0,1,1.943,5.7,7.717,7.717,0,0,1,5.079,2.529,10.02,10.02,0,0,1,10,1.276a9.7,9.7,0,0,1,6.211,2.141A7.285,7.285,0,0,1,18.057,5.7a6.05,6.05,0,0,1,.667,2.753V24.066h0a6.051,6.051,0,0,1-.667,2.753,7.715,7.715,0,0,1-3.136,3.171" fill="#fff"/>
        <path id="Path_425" data-name="Path 425" d="M92.2,65.332a3.209,3.209,0,1,0,3.209,3.209A3.2,3.2,0,0,0,92.2,65.332m0,5.142a1.933,1.933,0,1,1,1.367-.566,1.922,1.922,0,0,1-1.367.566" transform="translate(-82.204 -60.347)" fill="#fff"/>
        <path id="Path_426" data-name="Path 426" d="M96.652,478.118l-.9-.9-2.2,2.2-2.2-2.2-.9.9,3.1,3.1Z" transform="translate(-83.554 -440.802)" fill="#fff"/>
      </g>
    </g>
  </g>
</svg>
