<svg xmlns="http://www.w3.org/2000/svg" xmlns:xlink="http://www.w3.org/1999/xlink" width="11.822" height="13.97" viewBox="0 0 11.822 13.97">
  <defs>
    <clipPath id="clip-path">
      <rect id="Rectangle_569" data-name="Rectangle 569" width="11.822" height="13.97" transform="translate(0 0)" fill="#202155"/>
    </clipPath>
  </defs>
  <g id="Group_871" data-name="Group 871" transform="translate(0 0)">
    <g id="Group_870" data-name="Group 870" clip-path="url(#clip-path)">
      <path id="Path_592" data-name="Path 592" d="M10.091,3.879a6.086,6.086,0,0,0-.511-.455l.307-.455a.436.436,0,0,0-.119-.605l-.21-.141a.435.435,0,0,0-.6.118l-.316.47a5.846,5.846,0,0,0-1.9-.607V1.742A.875.875,0,0,0,6.617,0H5.2a.875.875,0,0,0-.117,1.742V2.2a5.912,5.912,0,1,0,5,1.675m-4.18,8.9a4.721,4.721,0,1,1,4.72-4.72,4.72,4.72,0,0,1-4.72,4.72" fill="#202155"/>
      <path id="Path_593" data-name="Path 593" d="M5.911,4.255h0a3.8,3.8,0,0,0-2.69,1.114,3.8,3.8,0,1,0,5.908,4.718L5.911,8.059Z" fill="#202155"/>
    </g>
  </g>
</svg>
