<svg id="Group_851" data-name="Group 851" xmlns="http://www.w3.org/2000/svg" width="15.638" height="17.457" viewBox="0 0 15.638 17.457">
  <path id="Path_586" data-name="Path 586" d="M15.059,42.2h-1.5a.083.083,0,0,1-.077-.077V40.654a.538.538,0,0,0-.54-.578.568.568,0,0,0-.579.578v1.5a.084.084,0,0,1-.077.078H10.816a.517.517,0,0,0-.578.54.593.593,0,0,0,.578.578h1.5a.084.084,0,0,1,.078.077v1.505a.526.526,0,0,0,.54.54.593.593,0,0,0,.578-.579v-1.5a.083.083,0,0,1,.077-.077h1.5a.552.552,0,0,0,.54-.54.537.537,0,0,0-.579-.579" transform="translate(0 -40.076)" fill="#fff"/>
  <path id="Path_587" data-name="Path 587" d="M0,55.481V54.475A2.013,2.013,0,0,1,1.166,52.75a13.385,13.385,0,0,1,9.978,0,2.013,2.013,0,0,1,1.166,1.725v1.006a2.052,2.052,0,0,1-2.052,2.052H2.052A2.052,2.052,0,0,1,0,55.481M6.155,43.533a3.42,3.42,0,1,0,3.419,3.419,3.419,3.419,0,0,0-3.419-3.419" transform="translate(0 -40.076)" fill="#fff"/>
</svg>
