<svg xmlns="http://www.w3.org/2000/svg" xmlns:xlink="http://www.w3.org/1999/xlink" width="32.938" height="14.435" viewBox="0 0 32.938 14.435">
  <defs>
    <clipPath id="clip-path">
      <rect id="Rectangle_564" data-name="Rectangle 564" width="32.938" height="14.435" fill="#e0e0e0"/>
    </clipPath>
  </defs>
  <g id="Group_856" data-name="Group 856" clip-path="url(#clip-path)">
    <path id="Path_588" data-name="Path 588" d="M1.821,8.04H31.114a1.923,1.923,0,0,0,1.823-2,1.925,1.925,0,0,0-1.823-2H1.821A1.924,1.924,0,0,0,0,6.041a1.921,1.921,0,0,0,1.821,2" transform="translate(0 6.395)" fill="#e0e0e0" fill-rule="evenodd"/>
    <path id="Path_589" data-name="Path 589" d="M1.821,4H31.114a1.923,1.923,0,0,0,1.823-2,1.925,1.925,0,0,0-1.823-2H1.821A1.924,1.924,0,0,0,0,2,1.921,1.921,0,0,0,1.821,4" transform="translate(0 0)" fill="#e0e0e0" fill-rule="evenodd"/>
  </g>
</svg>
