<svg id="Group_77556" data-name="Group 77556" xmlns="http://www.w3.org/2000/svg" xmlns:xlink="http://www.w3.org/1999/xlink" width="10.748" height="14.33" viewBox="0 0 10.748 14.33">
  <defs>
    <clipPath id="clip-path">
      <rect id="Rectangle_596" data-name="Rectangle 596" width="10.748" height="14.33" transform="translate(0 0)" fill="none"/>
    </clipPath>
  </defs>
  <g id="Group_911" data-name="Group 911" clip-path="url(#clip-path)">
    <path id="Path_611" data-name="Path 611" d="M5.374,7.165A3.583,3.583,0,1,0,1.791,3.582,3.587,3.587,0,0,0,5.374,7.165m0-5.971A2.389,2.389,0,1,1,2.986,3.582,2.39,2.39,0,0,1,5.374,1.194" fill="#444a58"/>
    <path id="Path_612" data-name="Path 612" d="M8.073,7.165a2.378,2.378,0,0,0-.991.233,4.2,4.2,0,0,1-3.416,0,2.374,2.374,0,0,0-.991-.233A2.678,2.678,0,0,0,0,9.84v1.505A2.987,2.987,0,0,0,2.986,14.33H7.762a2.987,2.987,0,0,0,2.986-2.985V9.84A2.678,2.678,0,0,0,8.073,7.165" fill="#444a58"/>
  </g>
</svg>
