<svg id="Group_867" data-name="Group 867" xmlns="http://www.w3.org/2000/svg" xmlns:xlink="http://www.w3.org/1999/xlink" width="11.942" height="14.33" viewBox="0 0 11.942 14.33">
  <defs>
    <clipPath id="clip-path">
      <rect id="Rectangle_566" data-name="Rectangle 566" width="11.942" height="14.33" transform="translate(0 0)" fill="#202155"/>
    </clipPath>
  </defs>
  <g id="Group_866" data-name="Group 866" clip-path="url(#clip-path)">
    <path id="Path_590" data-name="Path 590" d="M5.971,8.956a.6.6,0,1,0,.6.6.6.6,0,0,0-.6-.6" fill="#202155"/>
    <path id="Path_591" data-name="Path 591" d="M8.956,5.971H2.985V4.18a2.986,2.986,0,1,1,5.971,0,.6.6,0,0,0,1.195,0,4.18,4.18,0,0,0-8.36,0V6.222A2.994,2.994,0,0,0,0,8.957v2.388a2.987,2.987,0,0,0,2.985,2.986H8.956a2.987,2.987,0,0,0,2.986-2.986V8.957A2.987,2.987,0,0,0,8.956,5.971M6.568,11.235v.707a.6.6,0,0,1-1.194,0v-.707a1.791,1.791,0,1,1,1.194,0" fill="#202155"/>
  </g>
</svg>
