<svg id="Group_77626" data-name="Group 77626" xmlns="http://www.w3.org/2000/svg" xmlns:xlink="http://www.w3.org/1999/xlink" width="18.526" height="16" viewBox="0 0 18.526 16">
  <defs>
    <clipPath id="clip-path">
      <rect id="Rectangle_699" data-name="Rectangle 699" width="18.526" height="16" fill="red"/>
    </clipPath>
  </defs>
  <g id="Group_77625" data-name="Group 77625" transform="translate(0 0)" clip-path="url(#clip-path)">
    <path id="Path_692" data-name="Path 692" d="M10.945.94l7.319,12.237a1.849,1.849,0,0,1-.708,2.571,2,2,0,0,1-.974.253H1.944A1.913,1.913,0,0,1,0,14.118a1.826,1.826,0,0,1,.262-.942L7.581.94A1.978,1.978,0,0,1,10.237.254a1.913,1.913,0,0,1,.708.685M9.263,14.293a1.447,1.447,0,1,0-1.446-1.446,1.447,1.447,0,0,0,1.446,1.446m0-10.4a1.624,1.624,0,0,0-.212.013,1.7,1.7,0,0,0-1.478,1.9l.606,3.328a1.092,1.092,0,0,0,2.168,0l.606-3.328a1.871,1.871,0,0,0,.013-.21,1.7,1.7,0,0,0-1.7-1.7" transform="translate(0 0)" fill="red"/>
  </g>
</svg>
