<svg xmlns="http://www.w3.org/2000/svg" xmlns:xlink="http://www.w3.org/1999/xlink" width="14" height="14" viewBox="0 0 14 14">
  <defs>
    <clipPath id="clip-path">
      <rect id="Rectangle_570" data-name="Rectangle 570" width="14" height="14" transform="translate(0 0)" fill="#202155"/>
    </clipPath>
  </defs>
  <g id="Group_874" data-name="Group 874" transform="translate(0 0)">
    <g id="Group_873" data-name="Group 873" clip-path="url(#clip-path)">
      <path id="Path_594" data-name="Path 594" d="M13.739.261a.9.9,0,0,0-1.267,0L.262,12.471a.9.9,0,1,0,1.267,1.267l.616-.617A1.824,1.824,0,0,0,3.755,14h7.271a1.716,1.716,0,0,0,1.819-1.636V6.637a1.622,1.622,0,0,0-1.091-1.5V4.363a4.205,4.205,0,0,0-.077-.774l2.062-2.061a.9.9,0,0,0,0-1.267" fill="#202155"/>
      <path id="Path_595" data-name="Path 595" d="M5.209,5V4.364A2.184,2.184,0,0,1,7.391,2.182a2.133,2.133,0,0,1,.578.088L9.61.628A4.317,4.317,0,0,0,7.391,0,4.369,4.369,0,0,0,3.027,4.364v.77a1.622,1.622,0,0,0-1.091,1.5V8.3L5.237,5Z" fill="#202155"/>
    </g>
  </g>
</svg>
