<svg id="Group_77559" data-name="Group 77559" xmlns="http://www.w3.org/2000/svg" xmlns:xlink="http://www.w3.org/1999/xlink" width="24" height="12" viewBox="0 0 24 12">
  <defs>
    <clipPath id="clip-path">
      <rect id="Rectangle_597" data-name="Rectangle 597" width="24" height="12" fill="none"/>
    </clipPath>
  </defs>
  <g id="Group_913" data-name="Group 913" clip-path="url(#clip-path)">
    <path id="Path_613" data-name="Path 613" d="M2.75,0A2.754,2.754,0,0,0,0,2.75v6.5A2.754,2.754,0,0,0,2.75,12H7V0ZM8.5,12h7V0h-7ZM17,0V12h4.25A2.754,2.754,0,0,0,24,9.25V2.75A2.754,2.754,0,0,0,21.25,0ZM3.5,3a2,2,0,0,1,2,2V7a2,2,0,0,1-4,0V5a2,2,0,0,1,2-2M12,3a2,2,0,0,1,2,2V7a2,2,0,0,1-4,0V5a2,2,0,0,1,2-2m6.567,0h1.38a.738.738,0,0,0-.193.5.75.75,0,1,0,1.5,0A.737.737,0,0,0,21.06,3h1.38a1.983,1.983,0,0,1,.063.5,2,2,0,1,1-4,0,1.977,1.977,0,0,1,.063-.5M3.5,4.25A.752.752,0,0,0,2.75,5V7a.75.75,0,0,0,1.5,0V5a.752.752,0,0,0-.75-.75m8.5,0a.752.752,0,0,0-.75.75V7a.75.75,0,0,0,1.5,0V5A.752.752,0,0,0,12,4.25M19.125,6.5h2.75a.626.626,0,0,1,.565.893L21.679,9H20.3l.592-1.25H19.125a.625.625,0,0,1,0-1.25" fill="#444a58"/>
  </g>
</svg>
