<svg id="Group_910" data-name="Group 910" xmlns="http://www.w3.org/2000/svg" xmlns:xlink="http://www.w3.org/1999/xlink" width="150" height="33.011" viewBox="0 0 150 33.011">
  <defs>
    <clipPath id="clip-path">
      <rect id="Rectangle_595" data-name="Rectangle 595" width="150" height="33.011" fill="none"/>
    </clipPath>
  </defs>
  <g id="Group_909" data-name="Group 909" clip-path="url(#clip-path)">
    <path id="Path_601" data-name="Path 601" d="M33.011,16.5A16.505,16.505,0,1,1,16.505,0,16.506,16.506,0,0,1,33.011,16.5" transform="translate(0 0.001)" fill="#f15a29"/>
    <path id="Path_602" data-name="Path 602" d="M41.585,50.641l-1.974,3.63h0l-1.768,3.262a1.317,1.317,0,0,1-.389.5l-.034.019a1,1,0,0,1-.923-.25,1.141,1.141,0,0,1-.11-.636l.12-10.544-2.061-1.634L34.328,57a4.752,4.752,0,0,0,.122,1.341,1.946,1.946,0,0,0,1.078,1.232,4.253,4.253,0,0,0,.92.339,4.433,4.433,0,0,0,1.1.17,1.793,1.793,0,0,0,.942-.241,3.255,3.255,0,0,0,1.218-1.437l2.03-3.719.014,0,1.486-2.736Z" transform="translate(-26.173 -34.3)" fill="#fff"/>
    <path id="Path_603" data-name="Path 603" d="M70.759,39.022l1.507-2.774h0l1.772-3.263c.222-.4.372-.49.42-.512a.76.76,0,0,1,.489.008.729.729,0,0,1,.431.238.316.316,0,0,1,.042.078l.011.036a1.836,1.836,0,0,1,.06.527l-.107,9.325,2.06,1.633.109-10.8a4.792,4.792,0,0,0-.122-1.345c-.212-.761-.866-1.274-2-1.57a5.157,5.157,0,0,0-.745-.145,1.985,1.985,0,0,0-1.3.218,3.263,3.263,0,0,0-1.218,1.433l-2.007,3.68-.014-.006L69.1,37.71Z" transform="translate(-52.693 -23.211)" fill="#fff"/>
    <path id="Path_604" data-name="Path 604" d="M181.8,36.8V49.847a1.569,1.569,0,0,1-1.574,1.622,1.963,1.963,0,0,1-1.6-.978l-7.012-9.015v8.347a1.61,1.61,0,1,1-3.219,0V36.778a1.583,1.583,0,0,1,1.574-1.622c.811,0,1.169.453,1.646,1.049l6.988,8.944-.024-8.347a1.61,1.61,0,1,1,3.22,0" transform="translate(-128.402 -26.807)" fill="#202155"/>
    <path id="Path_605" data-name="Path 605" d="M252.933,43.314a8.374,8.374,0,1,1-8.4-8.157,8.207,8.207,0,0,1,8.4,8.157m-13.427,0a5.058,5.058,0,1,0,10.112,0,5.058,5.058,0,1,0-10.112,0" transform="translate(-180.1 -26.808)" fill="#202155"/>
    <path id="Path_606" data-name="Path 606" d="M326.019,36.706a1.811,1.811,0,0,1-.191.859l-5.366,12.807a1.562,1.562,0,0,1-1.526,1.1,1.542,1.542,0,0,1-1.526-1.1l-5.39-12.807a2.143,2.143,0,0,1-.191-.859,1.558,1.558,0,0,1,1.6-1.55,1.58,1.58,0,0,1,1.5,1.145l4.007,9.849,3.983-9.849a1.629,1.629,0,0,1,1.526-1.145,1.538,1.538,0,0,1,1.574,1.55" transform="translate(-237.775 -26.807)" fill="#202155"/>
    <path id="Path_607" data-name="Path 607" d="M384.476,49.919a1.538,1.538,0,0,1-1.574,1.55,1.63,1.63,0,0,1-1.526-1.144l-.668-1.622h-6.654l-.668,1.622a1.58,1.58,0,0,1-1.5,1.144,1.558,1.558,0,0,1-1.6-1.55,2.682,2.682,0,0,1,.191-.859l5.39-12.807a1.61,1.61,0,0,1,3.053,0l5.366,12.807a2.166,2.166,0,0,1,.191.859M375.1,46.055h4.531L377.393,39.9Z" transform="translate(-282.35 -26.807)" fill="#202155"/>
    <path id="Path_608" data-name="Path 608" d="M454.735,44.184c0,4.674-3.53,7.918-8.562,7.918h-3.53A1.591,1.591,0,0,1,441,50.456V38.007a1.591,1.591,0,0,1,1.645-1.646h3.53c5.1,0,8.562,3.148,8.562,7.823m-10.518-4.913v9.921h1.932c3.172,0,5.294-1.979,5.294-5.008s-2.027-4.913-5.294-4.913Z" transform="translate(-336.27 -27.726)" fill="#202155"/>
    <path id="Path_609" data-name="Path 609" d="M518.67,49.919a1.538,1.538,0,0,1-1.574,1.55,1.63,1.63,0,0,1-1.526-1.144L514.9,48.7h-6.654l-.668,1.622a1.58,1.58,0,0,1-1.5,1.144,1.558,1.558,0,0,1-1.6-1.55,2.683,2.683,0,0,1,.191-.859l5.39-12.807a1.61,1.61,0,0,1,3.053,0l5.366,12.807a2.166,2.166,0,0,1,.191.859M509.3,46.055h4.531L511.587,39.9Z" transform="translate(-384.675 -26.807)" fill="#202155"/>
    <path id="Path_610" data-name="Path 610" d="M588.6,36.8V49.847a1.569,1.569,0,0,1-1.574,1.622,1.963,1.963,0,0,1-1.6-.978l-7.012-9.015v8.347a1.61,1.61,0,1,1-3.22,0V36.778a1.583,1.583,0,0,1,1.573-1.622c.811,0,1.169.453,1.646,1.049l6.988,8.944-.024-8.347a1.61,1.61,0,1,1,3.219,0" transform="translate(-438.596 -26.807)" fill="#202155"/>
  </g>
</svg>
