<svg xmlns="http://www.w3.org/2000/svg" xmlns:xlink="http://www.w3.org/1999/xlink" width="61.517" height="60" viewBox="0 0 61.517 60">
  <defs>
    <clipPath id="clip-path">
      <rect id="Rectangle_538" data-name="Rectangle 538" width="61.517" height="60" fill="none"/>
    </clipPath>
  </defs>
  <g id="Group_940" data-name="Group 940" transform="translate(0 0)">
    <g id="Group_824" data-name="Group 824" transform="translate(0 0)" clip-path="url(#clip-path)">
      <path id="Path_491" data-name="Path 491" d="M55.536,25.766H5.982A5.988,5.988,0,0,1,0,19.784V11.242A5.988,5.988,0,0,1,5.982,5.26H55.536a5.988,5.988,0,0,1,5.982,5.982v8.543a5.988,5.988,0,0,1-5.982,5.982M5.982,9.361a1.882,1.882,0,0,0-1.88,1.88v8.543a1.882,1.882,0,0,0,1.88,1.88H55.536a1.882,1.882,0,0,0,1.88-1.88V11.242a1.882,1.882,0,0,0-1.88-1.88Z" transform="translate(0 5.527)" fill="#fff"/>
      <path id="Path_492" data-name="Path 492" d="M49.334,46.069H7.982A5.989,5.989,0,0,1,2,40.088V15.311A2.05,2.05,0,0,1,4.051,13.26H53.265a2.05,2.05,0,0,1,2.051,2.051V40.088a5.989,5.989,0,0,1-5.982,5.982M6.1,17.361V40.088a1.882,1.882,0,0,0,1.88,1.88H49.334a1.882,1.882,0,0,0,1.88-1.88V17.361Z" transform="translate(2.101 13.931)" fill="#fff"/>
      <path id="Path_493" data-name="Path 493" d="M23.8,14.888h-9.73A7.442,7.442,0,0,1,7.415,4.116,7.441,7.441,0,0,1,20.383,3.5L25.54,11.75A2.05,2.05,0,0,1,23.8,14.888M14.079,4.1c-.055,0-.111,0-.166,0a3.345,3.345,0,0,0-2.686,5.1,3.281,3.281,0,0,0,2.844,1.585H20.1L16.907,5.672A3.307,3.307,0,0,0,14.079,4.1" transform="translate(6.957 0)" fill="#fff"/>
      <path id="Path_494" data-name="Path 494" d="M25.78,14.887H16.05a2.048,2.048,0,0,1-1.737-3.137L19.469,3.5a7.443,7.443,0,0,1,12.644,7.856,7.4,7.4,0,0,1-6.332,3.531m-6.029-4.1H25.78A3.339,3.339,0,0,0,28.768,5.95,3.3,3.3,0,0,0,25.94,4.1a3.365,3.365,0,0,0-2.994,1.569Z" transform="translate(14.708 0.001)" fill="#fff"/>
      <path id="Path_495" data-name="Path 495" d="M31.556,25.766H11.051A2.05,2.05,0,0,1,9,23.715V7.311A2.05,2.05,0,0,1,11.051,5.26H31.556a2.05,2.05,0,0,1,2.051,2.051v16.4a2.05,2.05,0,0,1-2.051,2.051M13.1,21.665h16.4V9.361H13.1Z" transform="translate(9.455 5.527)" fill="#fff"/>
      <path id="Path_496" data-name="Path 496" d="M25.354,46.069h-12.3A2.049,2.049,0,0,1,11,44.019V15.311a2.05,2.05,0,0,1,2.051-2.051h12.3A2.05,2.05,0,0,1,27.4,15.311V44.019a2.049,2.049,0,0,1-2.051,2.051M15.1,41.968h8.2V17.361H15.1Z" transform="translate(11.556 13.931)" fill="#fff"/>
    </g>
  </g>
</svg>
