<svg id="Group_295" data-name="Group 295" xmlns="http://www.w3.org/2000/svg" xmlns:xlink="http://www.w3.org/1999/xlink" width="252.821" height="40.083" viewBox="0 0 252.821 40.083">
  <defs>
    <clipPath id="clip-path">
      <rect id="Rectangle_114" data-name="Rectangle 114" width="252.821" height="40.083" fill="none"/>
    </clipPath>
    <clipPath id="clip-path-2">
      <path id="Path_53" data-name="Path 53" d="M38.365,38.022V62.6a.541.541,0,0,0,.333.563L51.784,50.189,38.807,37.321a.653.653,0,0,0-.442.7" transform="translate(-38.365 -37.321)" fill="none"/>
    </clipPath>
    <linearGradient id="linear-gradient" x1="-0.672" y1="1.212" x2="-0.654" y2="1.212" gradientUnits="objectBoundingBox">
      <stop offset="0" stop-color="#006aa1"/>
      <stop offset="0.364" stop-color="#328fa6"/>
      <stop offset="0.791" stop-color="#67b6ac"/>
      <stop offset="1" stop-color="#7cc6af"/>
    </linearGradient>
    <clipPath id="clip-path-3">
      <path id="Path_54" data-name="Path 54" d="M40.248,37.241,53.225,50.109l3.6-3.574-5.417-3.128-.028-.016h0l-.034-.019h0l-.01-.006-.01-.006,0,0h0l-.011-.006,0,0L40.946,37.365a1.066,1.066,0,0,0-.512-.148.693.693,0,0,0-.186.024" transform="translate(-40.248 -37.217)" fill="none"/>
    </clipPath>
    <linearGradient id="linear-gradient-2" x1="-0.57" y1="2.431" x2="-0.556" y2="2.431" gradientUnits="objectBoundingBox">
      <stop offset="0" stop-color="#4ab59d"/>
      <stop offset="1" stop-color="#dfe385"/>
    </linearGradient>
    <clipPath id="clip-path-4">
      <path id="Path_55" data-name="Path 55" d="M39.783,105.083a.723.723,0,0,0,.584-.1l10.641-6.144h0l.006,0,.008,0h0l0,0h0l.015-.008,0,0,0,0h0l.005,0h0l5.416-3.127-3.6-3.573Z" transform="translate(-39.783 -92.107)" fill="none"/>
    </clipPath>
    <linearGradient id="linear-gradient-3" x1="-0.56" y1="1.416" x2="-0.546" y2="1.416" gradientUnits="objectBoundingBox">
      <stop offset="0" stop-color="#e4282d"/>
      <stop offset="0.316" stop-color="#ba2d4e"/>
      <stop offset="0.777" stop-color="#83357b"/>
      <stop offset="1" stop-color="#6e388d"/>
    </linearGradient>
    <clipPath id="clip-path-5">
      <path id="Path_56" data-name="Path 56" d="M95.5,80.464l3.6,3.573h0l0,0h0l.021-.012,5.178-2.99c.586-.338.556-.8.1-1.079l-.059-.034h0c-.516-.278-5.244-3.027-5.244-3.027Z" transform="translate(-95.498 -76.89)" fill="none"/>
    </clipPath>
    <linearGradient id="linear-gradient-4" x1="-2.387" y1="3.08" x2="-2.362" y2="3.08" gradientUnits="objectBoundingBox">
      <stop offset="0" stop-color="#f07165"/>
      <stop offset="0.659" stop-color="#faa460"/>
      <stop offset="1" stop-color="#ffba5e"/>
    </linearGradient>
  </defs>
  <g id="Group_96" data-name="Group 96">
    <g id="Group_95" data-name="Group 95" clip-path="url(#clip-path)">
      <path id="Path_52" data-name="Path 52" d="M120.133,37.23a5.311,5.311,0,0,1-5.309,5.311H5.31A5.311,5.311,0,0,1,0,37.23V8.554a5.311,5.311,0,0,1,5.31-5.31H114.823a5.31,5.31,0,0,1,5.309,5.31Z" transform="translate(0 -2.482)" fill="#1a1818"/>
    </g>
  </g>
  <g id="Group_98" data-name="Group 98" transform="translate(9.011 8.766)">
    <g id="Group_97" data-name="Group 97" clip-path="url(#clip-path-2)">
      <rect id="Rectangle_115" data-name="Rectangle 115" width="13.419" height="25.843" fill="url(#linear-gradient)"/>
    </g>
  </g>
  <g id="Group_100" data-name="Group 100" transform="translate(9.453 8.741)">
    <g id="Group_99" data-name="Group 99" clip-path="url(#clip-path-3)">
      <rect id="Rectangle_116" data-name="Rectangle 116" width="16.581" height="12.892" transform="translate(0 0)" fill="url(#linear-gradient-2)"/>
    </g>
  </g>
  <g id="Group_102" data-name="Group 102" transform="translate(9.344 21.633)">
    <g id="Group_101" data-name="Group 101" clip-path="url(#clip-path-4)">
      <rect id="Rectangle_117" data-name="Rectangle 117" width="16.69" height="13.029" transform="translate(0 0)" fill="url(#linear-gradient-3)"/>
    </g>
  </g>
  <g id="Group_104" data-name="Group 104" transform="translate(22.43 18.059)">
    <g id="Group_103" data-name="Group 103" clip-path="url(#clip-path-5)">
      <rect id="Rectangle_118" data-name="Rectangle 118" width="9.397" height="7.147" transform="translate(0 0)" fill="url(#linear-gradient-4)"/>
    </g>
  </g>
  <g id="Group_106" data-name="Group 106">
    <g id="Group_105" data-name="Group 105" clip-path="url(#clip-path)">
      <path id="Path_57" data-name="Path 57" d="M386.328,88.123a3.349,3.349,0,0,1-1.38-.279,2.6,2.6,0,0,1-1.049-.858h-.085a10.408,10.408,0,0,1,.085,1.285v3.185h-1.172V80.242h.953l.162,1.059h.056a2.724,2.724,0,0,1,1.052-.918,3.2,3.2,0,0,1,1.377-.283,2.86,2.86,0,0,1,2.376,1.052,5.6,5.6,0,0,1-.014,5.914,2.867,2.867,0,0,1-2.363,1.055m-.17-7.026a2.078,2.078,0,0,0-1.716.657,3.382,3.382,0,0,0-.544,2.09V84.1a3.872,3.872,0,0,0,.544,2.334,2.068,2.068,0,0,0,1.744.7,1.814,1.814,0,0,0,1.572-.812,3.851,3.851,0,0,0,.568-2.239,3.707,3.707,0,0,0-.568-2.221,1.871,1.871,0,0,0-1.6-.773" transform="translate(-292.835 -61.287)" fill="#f5f5f6"/>
      <rect id="Rectangle_119" data-name="Rectangle 119" width="1.172" height="10.987" transform="translate(98.248 15.707)" fill="#f5f5f6"/>
      <path id="Path_58" data-name="Path 58" d="M434.594,88.027l-.233-1.1H434.3a3.245,3.245,0,0,1-1.155.985,3.509,3.509,0,0,1-1.437.258,2.586,2.586,0,0,1-1.8-.593,2.163,2.163,0,0,1-.653-1.688q0-2.344,3.75-2.457l1.314-.042v-.48a1.96,1.96,0,0,0-.392-1.345,1.611,1.611,0,0,0-1.253-.435,5.1,5.1,0,0,0-2.189.593l-.36-.9a5.512,5.512,0,0,1,1.254-.487,5.427,5.427,0,0,1,1.366-.177,2.948,2.948,0,0,1,2.052.614,2.566,2.566,0,0,1,.667,1.97v5.282Zm-2.648-.826a2.38,2.38,0,0,0,1.719-.6,2.221,2.221,0,0,0,.625-1.681v-.7l-1.173.049a4.265,4.265,0,0,0-2.016.435,1.31,1.31,0,0,0-.618,1.2,1.206,1.206,0,0,0,.385.967,1.6,1.6,0,0,0,1.077.332" transform="translate(-328.436 -61.333)" fill="#f5f5f6"/>
      <path id="Path_59" data-name="Path 59" d="M458.581,80.7h1.257l1.695,4.413a16.872,16.872,0,0,1,.693,2.182h.056q.092-.361.385-1.233t1.917-5.363h1.257l-3.326,8.813a4.4,4.4,0,0,1-1.155,1.854,2.455,2.455,0,0,1-1.62.547,4.729,4.729,0,0,1-1.06-.12v-.939a4.078,4.078,0,0,0,.869.085,1.791,1.791,0,0,0,1.723-1.356l.43-1.1Z" transform="translate(-350.873 -61.747)" fill="#f5f5f6"/>
      <path id="Path_60" data-name="Path 60" d="M285.94,81.866a2.637,2.637,0,0,1-.211,4.484,1.139,1.139,0,0,0-.453.794.888.888,0,0,0,.421.7l.583.452a2.818,2.818,0,0,1,1.359,2.267c0,1.521-1.473,3.059-4.257,3.059-2.348,0-3.48-1.117-3.48-2.315a2.329,2.329,0,0,1,1.246-1.975,6.979,6.979,0,0,1,3.092-.745,1.694,1.694,0,0,1-.486-1.1,1.463,1.463,0,0,1,.162-.632c-.178.016-.356.032-.519.032a2.559,2.559,0,0,1-2.686-2.541,2.912,2.912,0,0,1,1.036-2.169,4.413,4.413,0,0,1,2.9-.891h3.334l-1.036.583Zm-1.15,7.188a2.478,2.478,0,0,0-.372-.017,6.469,6.469,0,0,0-1.7.26,1.818,1.818,0,0,0-1.392,1.667c0,1.149,1.118,1.976,2.85,1.976,1.553,0,2.379-.746,2.379-1.749,0-.827-.535-1.262-1.765-2.137m.47-3.076a1.637,1.637,0,0,0,.4-1.182c0-1.165-.7-2.978-2.039-2.978a1.511,1.511,0,0,0-1.133.535,1.87,1.87,0,0,0-.357,1.2c0,1.084.632,2.881,2.024,2.881a1.657,1.657,0,0,0,1.1-.454" transform="translate(-214.161 -62.192)" fill="#f5f5f6"/>
      <path id="Path_61" data-name="Path 61" d="M249.375,88.045a3.814,3.814,0,0,1-3.943-3.815,4,4,0,0,1,4.187-3.927,3.778,3.778,0,0,1,3.862,3.814,3.949,3.949,0,0,1-4.105,3.927m2.02-1.309a2.924,2.924,0,0,0,.485-1.795c0-1.422-.679-4.137-2.683-4.137a2.252,2.252,0,0,0-1.454.551A2.445,2.445,0,0,0,247,83.327c0,1.6.792,4.232,2.748,4.232a2.065,2.065,0,0,0,1.648-.823" transform="translate(-187.787 -61.443)" fill="#f5f5f6"/>
      <path id="Path_62" data-name="Path 62" d="M212.078,88.045a3.814,3.814,0,0,1-3.943-3.815,4,4,0,0,1,4.186-3.927,3.778,3.778,0,0,1,3.862,3.814,3.949,3.949,0,0,1-4.1,3.927m2.02-1.309a2.928,2.928,0,0,0,.485-1.795c0-1.422-.679-4.137-2.683-4.137a2.252,2.252,0,0,0-1.454.551,2.445,2.445,0,0,0-.743,1.972c0,1.6.792,4.232,2.748,4.232a2.066,2.066,0,0,0,1.648-.823" transform="translate(-159.25 -61.443)" fill="#f5f5f6"/>
      <path id="Path_63" data-name="Path 63" d="M166.41,75.875l-2.324.536a17.227,17.227,0,0,1-2.681.276,5.773,5.773,0,0,1-6.19-5.882c0-3.152,2.42-6.076,6.564-6.076a9.363,9.363,0,0,1,2.485.341,6.34,6.34,0,0,1,2.145,1.007l-1.349,1.284-.568.129.406-.65a4.644,4.644,0,0,0-3.477-1.527,4.488,4.488,0,0,0-4.5,4.794,5.746,5.746,0,0,0,5.752,5.93,4.839,4.839,0,0,0,2.064-.406V73.015l-2.453.13,1.3-.7h3.445l-.422.406a.379.379,0,0,0-.163.26c-.017.147-.032.618-.032.781Z" transform="translate(-118.759 -49.526)" fill="#f5f5f6"/>
      <path id="Path_64" data-name="Path 64" d="M316.231,74.228c-.536-.049-.649-.146-.649-.78v-9.2c0-.035.006-.071.009-.1.066-.568.228-.666.732-.959H314l-1.219.585h1.242V73.806c0,.324-.064.374-.438.861h2.876l.6-.356c-.276-.034-.552-.049-.829-.082" transform="translate(-239.317 -48.347)" fill="#f5f5f6"/>
      <path id="Path_65" data-name="Path 65" d="M336.438,87.49c-.177.1-.354.21-.531.291a3.76,3.76,0,0,1-1.567.307,3.447,3.447,0,0,1-2.146-.629,4.177,4.177,0,0,1-1.645-3.4,3.657,3.657,0,0,1,3.695-3.727,3.137,3.137,0,0,1,1.663.452,2.671,2.671,0,0,1,1.128,1.6l-3.791,1.534-1.243.1c.4,2.049,1.791,3.242,3.324,3.242a4.169,4.169,0,0,0,1.968-.564Zm-1.516-4.809c.306-.113.467-.21.467-.435a1.6,1.6,0,0,0-1.6-1.388,1.987,1.987,0,0,0-1.856,2.243c0,.274.032.565.049.856Z" transform="translate(-252.912 -61.46)" fill="#f5f5f6"/>
      <path id="Path_66" data-name="Path 66" d="M360.686,80.436V81.5h-.129V80.436H360.2v-.11h.834v.11Z" transform="translate(-275.602 -61.459)" fill="#f5f5f6"/>
      <path id="Path_67" data-name="Path 67" d="M365.544,81.5V80.426h-.006L365.21,81.5h-.1l-.331-1.075h0V81.5h-.117V80.325h.2l.3.95h0l.295-.95h.2V81.5Z" transform="translate(-279.009 -61.459)" fill="#f5f5f6"/>
      <path id="Path_68" data-name="Path 68" d="M158.532,40.557h-.807a5.349,5.349,0,0,0-.229-.943H156.33a4.881,4.881,0,0,0-.237.943h-.759q0-.1.589-1.615a12.646,12.646,0,0,0,.589-1.67h.954A13.9,13.9,0,0,0,158,38.918a14.435,14.435,0,0,1,.534,1.639m-1.166-1.425a14.185,14.185,0,0,1-.431-1.408h-.04q0,.1-.446,1.408Z" transform="translate(-118.85 -28.518)" fill="#f7f8f8"/>
      <path id="Path_69" data-name="Path 69" d="M173.987,40.557h-.623a6.159,6.159,0,0,0-.694-1.092,6.013,6.013,0,0,1-.828-1.426h-.04a8.9,8.9,0,0,1,.063,1q0,.623.035,1.519h-.621q.038-.782.038-1.718t-.038-1.567h.749a4.746,4.746,0,0,0,.623,1.067,6.267,6.267,0,0,1,.762,1.345h.038a9.515,9.515,0,0,1-.061-1.009q0-.683-.035-1.4h.631q-.036.626-.035,1.567t.035,1.718" transform="translate(-131.051 -28.518)" fill="#f7f8f8"/>
      <path id="Path_70" data-name="Path 70" d="M189.334,38.751A1.861,1.861,0,0,1,188.875,40a1.6,1.6,0,0,1-1.287.535q-.373,0-1.029-.03.033-.762.033-1.718,0-.918-.033-1.567H187q.109,0,.323-.008t.28-.008a1.7,1.7,0,0,1,1.321.454,1.57,1.57,0,0,1,.41,1.09m-.689.109a1.217,1.217,0,0,0-.283-.816,1.072,1.072,0,0,0-.863-.332,2.687,2.687,0,0,0-.3.023q.025.5.025,1.055,0,.6.025,1.2a1.672,1.672,0,0,0,.328.033.953.953,0,0,0,.8-.337,1.3,1.3,0,0,0,.261-.821" transform="translate(-142.741 -28.468)" fill="#f7f8f8"/>
      <path id="Path_71" data-name="Path 71" d="M204.069,40.507h-.747a4.977,4.977,0,0,0-.449-1.1.589.589,0,0,0-.5-.209l-.28,0q0,.648.023,1.309h-.7q.033-.762.033-1.718,0-.918-.033-1.567h.436q.076,0,.317-.008t.445-.008q1.158,0,1.158.792a.889.889,0,0,1-.661.876v.038a.787.787,0,0,1,.447.4,8.782,8.782,0,0,1,.517,1.2m-.946-2.321q0-.5-.646-.5a2.2,2.2,0,0,0-.419.035q.028.391.028,1.019.139.005.235.005.8,0,.8-.558" transform="translate(-154.104 -28.468)" fill="#f7f8f8"/>
      <path id="Path_72" data-name="Path 72" d="M217.667,38.608a1.81,1.81,0,0,1-.474,1.284,1.538,1.538,0,0,1-1.173.51,1.483,1.483,0,0,1-1.115-.468,1.648,1.648,0,0,1-.449-1.189,1.811,1.811,0,0,1,.474-1.284,1.539,1.539,0,0,1,1.173-.51,1.485,1.485,0,0,1,1.115.467,1.648,1.648,0,0,1,.449,1.191m-.7.073a1.3,1.3,0,0,0-.27-.855.832.832,0,0,0-.666-.328.769.769,0,0,0-.626.33,1.318,1.318,0,0,0-.257.835,1.3,1.3,0,0,0,.271.854.83.83,0,0,0,.665.329.769.769,0,0,0,.626-.332,1.32,1.32,0,0,0,.257-.834" transform="translate(-164.085 -28.271)" fill="#f7f8f8"/>
      <path id="Path_73" data-name="Path 73" d="M231.878,40.557h-.714q.033-.782.033-1.718t-.033-1.567h.714q-.033.636-.033,1.567,0,.951.033,1.718" transform="translate(-176.87 -28.518)" fill="#f7f8f8"/>
      <path id="Path_74" data-name="Path 74" d="M240.734,38.751A1.861,1.861,0,0,1,240.274,40a1.6,1.6,0,0,1-1.287.535q-.373,0-1.029-.03.033-.762.033-1.718,0-.918-.033-1.567h.442q.108,0,.323-.008t.28-.008a1.7,1.7,0,0,1,1.321.454,1.571,1.571,0,0,1,.41,1.09m-.689.109a1.217,1.217,0,0,0-.283-.816,1.072,1.072,0,0,0-.863-.332,2.687,2.687,0,0,0-.3.023q.025.5.025,1.055,0,.6.025,1.2a1.672,1.672,0,0,0,.328.033.953.953,0,0,0,.8-.337,1.3,1.3,0,0,0,.261-.821" transform="translate(-182.068 -28.468)" fill="#f7f8f8"/>
      <path id="Path_75" data-name="Path 75" d="M260.008,40.557H259.2a5.338,5.338,0,0,0-.23-.943h-1.166a4.882,4.882,0,0,0-.237.943h-.759q0-.1.589-1.615a12.619,12.619,0,0,0,.589-1.67h.954a13.952,13.952,0,0,0,.534,1.646,14.467,14.467,0,0,1,.534,1.639m-1.166-1.425a14.233,14.233,0,0,1-.432-1.408h-.04q0,.1-.446,1.408Z" transform="translate(-196.492 -28.518)" fill="#f7f8f8"/>
      <path id="Path_76" data-name="Path 76" d="M275.152,38.083a.983.983,0,0,1-.448.891,1.99,1.99,0,0,1-1.1.288q-.118,0-.169-.005,0,.475.028,1.251h-.709q.033-.729.033-1.718,0-.908-.033-1.567h.439q.093,0,.358-.008t.459-.008a1.444,1.444,0,0,1,.81.217.734.734,0,0,1,.33.659m-.651.139q0-.54-.717-.54a2.036,2.036,0,0,0-.378.038q.028.477.028,1.08c.042,0,.091,0,.146,0q.921,0,.921-.583" transform="translate(-208.692 -28.469)" fill="#f7f8f8"/>
      <path id="Path_77" data-name="Path 77" d="M288.036,38.083a.983.983,0,0,1-.448.891,1.991,1.991,0,0,1-1.1.288q-.118,0-.169-.005,0,.475.028,1.251h-.709q.033-.729.033-1.718,0-.908-.033-1.567h.439q.093,0,.358-.008t.459-.008a1.444,1.444,0,0,1,.81.217.734.734,0,0,1,.331.659m-.651.139q0-.54-.717-.54a2.036,2.036,0,0,0-.378.038q.028.477.028,1.08c.042,0,.091,0,.146,0q.921,0,.921-.583" transform="translate(-218.55 -28.469)" fill="#f7f8f8"/>
      <path id="Path_78" data-name="Path 78" d="M306.446,38.608a1.81,1.81,0,0,1-.474,1.284,1.538,1.538,0,0,1-1.173.51,1.482,1.482,0,0,1-1.115-.468,1.649,1.649,0,0,1-.449-1.189,1.812,1.812,0,0,1,.474-1.284,1.54,1.54,0,0,1,1.173-.51,1.485,1.485,0,0,1,1.115.467,1.648,1.648,0,0,1,.449,1.191m-.7.073a1.3,1.3,0,0,0-.27-.855.831.831,0,0,0-.666-.328.77.77,0,0,0-.626.33,1.32,1.32,0,0,0-.257.835,1.3,1.3,0,0,0,.271.854.831.831,0,0,0,.665.329.768.768,0,0,0,.626-.332,1.319,1.319,0,0,0,.257-.834" transform="translate(-232.013 -28.271)" fill="#f7f8f8"/>
      <path id="Path_79" data-name="Path 79" d="M322.65,40.557h-.623a6.153,6.153,0,0,0-.694-1.092,6.017,6.017,0,0,1-.827-1.426h-.04a8.891,8.891,0,0,1,.063,1q0,.623.035,1.519h-.621q.038-.782.038-1.718t-.038-1.567h.749a4.758,4.758,0,0,0,.623,1.067,6.268,6.268,0,0,1,.762,1.345h.038a9.514,9.514,0,0,1-.061-1.009q0-.683-.035-1.4h.631q-.036.626-.035,1.567t.035,1.718" transform="translate(-244.797 -28.518)" fill="#f7f8f8"/>
      <path id="Path_80" data-name="Path 80" d="M677.247,34.666a5.416,5.416,0,0,1-5.415,5.417h-111.7a5.417,5.417,0,0,1-5.417-5.417V5.417A5.417,5.417,0,0,1,560.129,0h111.7a5.416,5.416,0,0,1,5.415,5.417Z" transform="translate(-424.425)" fill="#1a1818"/>
      <path id="Path_81" data-name="Path 81" d="M613.442,67.856a19.842,19.842,0,0,1-1.794,3.35c-1.166,1.774-2.808,3.984-4.843,4-1.809.017-2.273-1.177-4.727-1.164s-2.967,1.184-4.776,1.168c-2.035-.019-3.591-2.014-4.757-3.788-3.259-4.961-3.6-10.783-1.589-13.877a7.211,7.211,0,0,1,5.8-3.487c2.157,0,3.513,1.183,5.3,1.183,1.73,0,2.784-1.185,5.278-1.185a7.039,7.039,0,0,1,5.306,2.8,6.071,6.071,0,0,0,.806,11" transform="translate(-451.202 -41.362)" fill="#fff"/>
      <path id="Path_82" data-name="Path 82" d="M642.6,31.014a6.055,6.055,0,0,0,1.345-4.484,6.543,6.543,0,0,0-4.223,2.271,5.621,5.621,0,0,0-1.38,4.374,5.521,5.521,0,0,0,4.258-2.161" transform="translate(-488.364 -20.299)" fill="#fff"/>
      <path id="Path_83" data-name="Path 83" d="M717.821,68.6l-4.668,13.741h2.138l1.394-4.219h4.52l1.433,4.219h2.2L720.146,68.6Zm1.108,2.259c.158.613.328,1.25.546,1.939l1.258,3.643h-3.581l1.24-3.667c.189-.594.368-1.237.536-1.915" transform="translate(-545.653 -52.484)" fill="#fff"/>
      <path id="Path_84" data-name="Path 84" d="M771.375,83.761a3.89,3.89,0,0,0-3.305,1.586l-.083-1.367h-1.9l.011.175c.056.851.079,1.789.079,3.134V97.88h2.079V92.937a3.651,3.651,0,0,0,2.842,1.221,4.286,4.286,0,0,0,3.15-1.339,5.68,5.68,0,0,0,1.391-4,5.531,5.531,0,0,0-1.208-3.651,3.956,3.956,0,0,0-3.056-1.408m-.518,1.721c1.853,0,2.683,1.717,2.683,3.418,0,2.194-1.058,3.557-2.762,3.557a2.521,2.521,0,0,1-2.449-1.929,2.655,2.655,0,0,1-.074-.673V88.183a3.123,3.123,0,0,1,.066-.513c.01-.057.022-.114.03-.169a2.633,2.633,0,0,1,2.506-2.019" transform="translate(-586.153 -64.088)" fill="#fff"/>
      <path id="Path_85" data-name="Path 85" d="M816.956,83.761a3.892,3.892,0,0,0-3.305,1.586l-.083-1.367h-1.9l.011.175c.056.852.08,1.789.08,3.134V97.88h2.079V92.937a3.649,3.649,0,0,0,2.841,1.221,4.292,4.292,0,0,0,3.152-1.339,5.687,5.687,0,0,0,1.39-4,5.531,5.531,0,0,0-1.208-3.651,3.954,3.954,0,0,0-3.055-1.408m-.517,1.721c1.853,0,2.682,1.717,2.682,3.418,0,2.194-1.059,3.557-2.761,3.557a2.521,2.521,0,0,1-2.449-1.929,2.652,2.652,0,0,1-.073-.673V88.183a3.09,3.09,0,0,1,.066-.515c.01-.056.021-.112.03-.167a2.631,2.631,0,0,1,2.505-2.019" transform="translate(-621.029 -64.088)" fill="#fff"/>
      <path id="Path_86" data-name="Path 86" d="M875.165,73.7c-1.94-.751-2.562-1.342-2.562-2.434,0-.919.73-1.847,2.363-1.847a4.726,4.726,0,0,1,2.441.613l.176.109.587-1.735-.116-.068a6.024,6.024,0,0,0-3.027-.679c-2.651,0-4.5,1.565-4.5,3.805,0,1.807,1.159,3.07,3.649,3.975,1.765.66,2.421,1.335,2.421,2.493,0,1.311-1.013,2.124-2.643,2.124a5.69,5.69,0,0,1-3-.85l-.18-.116-.558,1.775.1.068a7.12,7.12,0,0,0,3.513.9c3.573,0,4.84-2.179,4.84-4.045,0-1.924-1.016-3.11-3.507-4.093" transform="translate(-665.826 -51.771)" fill="#fff"/>
      <path id="Path_87" data-name="Path 87" d="M910.648,74.613l-2.039.64V76.98h-1.493v1.661h1.493v5.09a3.892,3.892,0,0,0,.72,2.638,2.665,2.665,0,0,0,2.011.79,4.891,4.891,0,0,0,1.607-.248l.116-.041-.1-1.665-.2.061a3.131,3.131,0,0,1-.967.112c-.806,0-1.15-.51-1.15-1.706v-5.03h2.508V76.98h-2.508Z" transform="translate(-694.06 -57.088)" fill="#fff"/>
      <path id="Path_88" data-name="Path 88" d="M938.673,83.761c-2.909,0-4.94,2.171-4.94,5.278,0,3.014,1.966,5.119,4.781,5.119h.019a4.9,4.9,0,0,0,4.94-5.3,5.254,5.254,0,0,0-1.325-3.677,4.626,4.626,0,0,0-3.475-1.422m-.06,1.641c1.87,0,2.722,1.823,2.722,3.518,0,2.084-1.162,3.6-2.761,3.6h-.02c-1.577,0-2.721-1.487-2.721-3.537,0-1.781.86-3.578,2.781-3.578" transform="translate(-714.425 -64.088)" fill="#fff"/>
      <path id="Path_89" data-name="Path 89" d="M985.457,83.858l-.125-.032a2,2,0,0,0-.517-.065,2.966,2.966,0,0,0-2.607,1.674l-.061-1.455h-1.865l.012.175c.056.823.078,1.747.078,2.994l-.019,6.792h2.079v-5.3a5.358,5.358,0,0,1,.057-.806,2.3,2.3,0,0,1,2.187-2.1,5.32,5.32,0,0,1,.558.035l.223.023Z" transform="translate(-750.041 -64.088)" fill="#fff"/>
      <path id="Path_90" data-name="Path 90" d="M1006.9,83.677c-2.767,0-4.7,2.211-4.7,5.378a4.649,4.649,0,0,0,4.9,5.02,7.976,7.976,0,0,0,3.292-.631l.125-.056-.4-1.549-.173.07a6.442,6.442,0,0,1-2.6.466,2.89,2.89,0,0,1-3.114-3.014l6.711.02.027-.133a4.653,4.653,0,0,0,.062-.868c0-2.169-1.08-4.7-4.124-4.7m-.139,1.582a2.052,2.052,0,0,1,1.526.582,2.959,2.959,0,0,1,.716,1.935h-4.742a2.653,2.653,0,0,1,2.5-2.518" transform="translate(-766.812 -64.024)" fill="#fff"/>
      <path id="Path_91" data-name="Path 91" d="M713.152,28.191a15.156,15.156,0,0,1,1.994-.135,4.45,4.45,0,0,1,2.927.8A2.845,2.845,0,0,1,719.1,31.2a3.292,3.292,0,0,1-1.04,2.528,4.825,4.825,0,0,1-3.206.936,14.472,14.472,0,0,1-1.7-.077Zm.944,5.76a6.737,6.737,0,0,0,.944.039c1.994.009,3.077-1,3.077-2.76.011-1.553-.954-2.509-2.927-2.509a5.924,5.924,0,0,0-1.094.087Z" transform="translate(-545.652 -21.466)" fill="#fff"/>
      <path id="Path_92" data-name="Path 92" d="M744.622,40.5a2.344,2.344,0,0,1-2.487-2.4,2.409,2.409,0,0,1,2.573-2.48,2.325,2.325,0,0,1,2.5,2.393,2.418,2.418,0,0,1-2.573,2.489Zm.032-.637a1.662,1.662,0,0,0,1.576-1.824,1.587,1.587,0,1,0-1.587,1.824Z" transform="translate(-567.828 -27.249)" fill="#fff"/>
      <path id="Path_93" data-name="Path 93" d="M766.936,36.065l.7,2.364c.139.521.279,1.013.375,1.5h.032c.118-.473.29-.975.461-1.486l.847-2.374h.793l.8,2.335c.193.55.343,1.052.461,1.525h.032a12.872,12.872,0,0,1,.4-1.515l.74-2.345h.933l-1.673,4.67h-.858l-.793-2.229a15.409,15.409,0,0,1-.461-1.544H769.7a12.833,12.833,0,0,1-.472,1.554l-.836,2.219h-.858l-1.566-4.67Z" transform="translate(-586.066 -27.594)" fill="#fff"/>
      <path id="Path_94" data-name="Path 94" d="M801.941,36.984c0-.492-.011-.878-.043-1.264h.837l.053.763h.022a1.966,1.966,0,0,1,1.715-.869,1.776,1.776,0,0,1,1.833,1.988V40.39h-.943V37.7c0-.753-.311-1.389-1.2-1.389a1.346,1.346,0,0,0-1.265.868,1.145,1.145,0,0,0-.064.4V40.39h-.943Z" transform="translate(-613.554 -27.249)" fill="#fff"/>
      <rect id="Rectangle_120" data-name="Rectangle 120" width="0.944" height="6.851" transform="translate(194.337 6.29)" fill="#fff"/>
      <path id="Path_95" data-name="Path 95" d="M838.989,40.5a2.344,2.344,0,0,1-2.487-2.4,2.409,2.409,0,0,1,2.573-2.48,2.325,2.325,0,0,1,2.5,2.393A2.418,2.418,0,0,1,839,40.5Zm.032-.637a1.662,1.662,0,0,0,1.577-1.824,1.587,1.587,0,1,0-1.587,1.824Z" transform="translate(-640.031 -27.249)" fill="#fff"/>
      <path id="Path_96" data-name="Path 96" d="M865.491,39.272a7.072,7.072,0,0,0,.075,1.119h-.847l-.086-.588H864.6a2,2,0,0,1-1.587.695,1.415,1.415,0,0,1-1.587-1.341c0-1.129,1.115-1.746,3.119-1.737v-.1c0-.386-.117-1.09-1.179-1.08a2.71,2.71,0,0,0-1.362.347l-.215-.569a3.654,3.654,0,0,1,1.716-.4,1.736,1.736,0,0,1,1.983,1.91Zm-.922-1.264c-1.029-.019-2.2.145-2.2,1.052a.789.789,0,0,0,.879.811,1.308,1.308,0,0,0,1.275-.782.774.774,0,0,0,.043-.27Z" transform="translate(-659.102 -27.25)" fill="#fff"/>
      <path id="Path_97" data-name="Path 97" d="M888.423,26.782v5.644c0,.415.012.888.043,1.206h-.847l-.043-.81h-.022a1.941,1.941,0,0,1-1.758.916,2.227,2.227,0,0,1-2.23-2.374,2.328,2.328,0,0,1,2.326-2.509,1.785,1.785,0,0,1,1.566.7h.021V26.782Zm-.943,4.081a1.407,1.407,0,0,0-.043-.367,1.363,1.363,0,0,0-1.361-.974,1.6,1.6,0,0,0-1.555,1.795,1.549,1.549,0,0,0,1.533,1.736,1.4,1.4,0,0,0,1.383-1.013,1.315,1.315,0,0,0,.043-.367Z" transform="translate(-676.041 -20.492)" fill="#fff"/>
      <path id="Path_98" data-name="Path 98" d="M921.478,40.5a2.344,2.344,0,0,1-2.487-2.4,2.409,2.409,0,0,1,2.573-2.48,2.325,2.325,0,0,1,2.5,2.393A2.418,2.418,0,0,1,921.49,40.5Zm.033-.637a1.661,1.661,0,0,0,1.576-1.824,1.586,1.586,0,1,0-1.587,1.824Z" transform="translate(-703.145 -27.249)" fill="#fff"/>
      <path id="Path_99" data-name="Path 99" d="M945.512,36.984c0-.492-.011-.878-.043-1.264h.836l.054.763h.021a1.966,1.966,0,0,1,1.715-.869,1.776,1.776,0,0,1,1.834,1.988V40.39h-.944V37.7c0-.753-.311-1.389-1.2-1.389a1.347,1.347,0,0,0-1.265.868,1.148,1.148,0,0,0-.064.4V40.39h-.943Z" transform="translate(-723.404 -27.249)" fill="#fff"/>
      <path id="Path_100" data-name="Path 100" d="M979.88,31.3v1.119h1.35v.646h-1.35v2.519c0,.579.182.907.708.907a1.954,1.954,0,0,0,.547-.058l.042.646a2.832,2.832,0,0,1-.836.116,1.429,1.429,0,0,1-1.019-.357,1.7,1.7,0,0,1-.364-1.226V33.067h-.8v-.646h.8v-.859Z" transform="translate(-748.413 -23.95)" fill="#fff"/>
      <path id="Path_101" data-name="Path 101" d="M995.776,26.782h.943V29.7h.022a1.6,1.6,0,0,1,.676-.6,1.993,1.993,0,0,1,.965-.241,1.775,1.775,0,0,1,1.812,2v2.779h-.943V30.95c0-.762-.311-1.39-1.2-1.39a1.356,1.356,0,0,0-1.265.849.933.933,0,0,0-.065.405v2.817h-.943Z" transform="translate(-761.896 -20.492)" fill="#fff"/>
      <path id="Path_102" data-name="Path 102" d="M1020.425,38.169a1.581,1.581,0,0,0,1.769,1.621,3.934,3.934,0,0,0,1.437-.232l.172.6a4.64,4.64,0,0,1-1.737.3,2.3,2.3,0,0,1-2.552-2.354,2.377,2.377,0,0,1,2.444-2.528,2.044,2.044,0,0,1,2.134,2.2,1.962,1.962,0,0,1-.032.405Zm2.756-.608a1.253,1.253,0,0,0-1.3-1.38,1.469,1.469,0,0,0-1.448,1.38Z" transform="translate(-780.058 -27.218)" fill="#fff"/>
    </g>
  </g>
</svg>
