<svg id="Group_845" data-name="Group 845" xmlns="http://www.w3.org/2000/svg" xmlns:xlink="http://www.w3.org/1999/xlink" width="252.821" height="59.526" viewBox="0 0 252.821 59.526">
  <defs>
    <clipPath id="clip-path">
      <rect id="Rectangle_560" data-name="Rectangle 560" width="252.821" height="59.526" fill="none"/>
    </clipPath>
  </defs>
  <g id="Group_844" data-name="Group 844" clip-path="url(#clip-path)">
    <path id="Path_543" data-name="Path 543" d="M55.639,27.82A27.819,27.819,0,1,1,27.819,0a27.82,27.82,0,0,1,27.82,27.82" fill="#f15a29"/>
    <path id="Path_544" data-name="Path 544" d="M46.561,54.519l-3.327,6.119h0l-2.98,5.5a2.22,2.22,0,0,1-.655.835L39.546,67a1.683,1.683,0,0,1-1.555-.421,1.924,1.924,0,0,1-.186-1.072l.2-17.772-3.474-2.754-.2,20.256a8.009,8.009,0,0,0,.206,2.26,3.28,3.28,0,0,0,1.817,2.077,7.169,7.169,0,0,0,1.55.571,7.472,7.472,0,0,0,1.856.286,3.022,3.022,0,0,0,1.588-.405A5.486,5.486,0,0,0,43.4,67.606l3.421-6.269.024,0,2.5-4.612Z" transform="translate(-20.586 -26.978)" fill="#fff"/>
    <path id="Path_545" data-name="Path 545" d="M71.894,44.905l2.54-4.676h0l2.987-5.5c.373-.671.626-.826.707-.863a1.281,1.281,0,0,1,.824.014,1.228,1.228,0,0,1,.726.4.533.533,0,0,1,.07.132l.019.061a3.094,3.094,0,0,1,.1.889l-.181,15.717,3.472,2.753.184-18.2a8.077,8.077,0,0,0-.206-2.266c-.358-1.282-1.459-2.148-3.367-2.646a8.694,8.694,0,0,0-1.255-.244,3.346,3.346,0,0,0-2.189.368,5.5,5.5,0,0,0-2.053,2.416l-3.383,6.2-.024-.01L69.1,42.693Z" transform="translate(-41.444 -18.256)" fill="#fff"/>
    <path id="Path_546" data-name="Path 546" d="M173.769,136.149v-6.57a.59.59,0,0,1,.6-.6h3.991a.561.561,0,0,1,.577.566.551.551,0,0,1-.577.553h-3.344v1.991h2.414a.541.541,0,1,1,0,1.082h-2.414v2.461H178.5a.551.551,0,0,1,.577.553.561.561,0,0,1-.577.566H174.37a.589.589,0,0,1-.6-.6" transform="translate(-104.215 -77.352)" fill="#202155"/>
    <path id="Path_547" data-name="Path 547" d="M194.471,132.67a4,4,0,0,1,4.086-4.015,3.934,3.934,0,0,1,3.026,1.354.794.794,0,0,1,.2.494.576.576,0,0,1-.577.566.636.636,0,0,1-.495-.247,2.669,2.669,0,0,0-2.143-1.024,2.874,2.874,0,0,0,0,5.745,2.7,2.7,0,0,0,2.131-1.025.64.64,0,0,1,.506-.247.576.576,0,0,1,.577.566.8.8,0,0,1-.212.495,3.86,3.86,0,0,1-3.014,1.354,4,4,0,0,1-4.086-4.015" transform="translate(-116.631 -77.159)" fill="#202155"/>
    <path id="Path_548" data-name="Path 548" d="M226.966,136.185a.561.561,0,0,1-.576.566h-5.157a.571.571,0,0,1-.589-.566.73.73,0,0,1,.189-.411l4.344-5.675h-3.509a.551.551,0,0,1-.577-.553.561.561,0,0,1,.577-.566h4.651a.569.569,0,0,1,.577.566.684.684,0,0,1-.177.4l-4.344,5.687h4.015a.551.551,0,0,1,.576.553" transform="translate(-132.327 -77.353)" fill="#202155"/>
    <path id="Path_549" data-name="Path 549" d="M250.764,136.085a.614.614,0,0,1-1.2.165l-.482-1.095h-3.662l-.459,1.095a.613.613,0,0,1-1.2-.165.788.788,0,0,1,.094-.353l2.814-6.652a.629.629,0,0,1,1.189,0l2.815,6.652a1,1,0,0,1,.094.353m-4.91-1.99h2.778l-1.378-3.614Z" transform="translate(-146.191 -77.159)" fill="#202155"/>
    <path id="Path_550" data-name="Path 550" d="M276.687,129.291v6.782a.6.6,0,0,1-.612.613.725.725,0,0,1-.589-.353l-3.957-5.216v4.934a.624.624,0,1,1-1.248,0v-6.782a.609.609,0,0,1,.612-.612c.283,0,.424.142.624.412l3.933,5.145-.012-4.922a.624.624,0,1,1,1.247,0" transform="translate(-162.097 -77.159)" fill="#202155"/>
    <path id="Path_551" data-name="Path 551" d="M296.749,136.149v-6.57a.59.59,0,0,1,.6-.6h3.991a.561.561,0,0,1,.577.566.551.551,0,0,1-.577.553H298v1.991h2.414a.541.541,0,1,1,0,1.082H298v2.461h3.485a.551.551,0,0,1,.577.553.561.561,0,0,1-.577.566H297.35a.589.589,0,0,1-.6-.6" transform="translate(-177.97 -77.352)" fill="#202155"/>
    <path id="Path_552" data-name="Path 552" d="M332.888,136.244v-6.617a.625.625,0,0,1,.648-.648h2.178a2.4,2.4,0,1,1,0,4.768h-1.578v2.5a.624.624,0,1,1-1.248,0m2.815-3.6a1.28,1.28,0,1,0,0-2.555h-1.567v2.555Z" transform="translate(-199.644 -77.353)" fill="#202155"/>
    <path id="Path_553" data-name="Path 553" d="M358.834,136.085a.614.614,0,0,1-1.2.165l-.482-1.095h-3.662l-.459,1.095a.613.613,0,0,1-1.2-.165.788.788,0,0,1,.094-.353l2.814-6.652a.629.629,0,0,1,1.189,0l2.815,6.652a1,1,0,0,1,.094.353m-4.91-1.99H356.7l-1.378-3.614Z" transform="translate(-211.004 -77.159)" fill="#202155"/>
    <path id="Path_554" data-name="Path 554" d="M383,136.185a.561.561,0,0,1-.576.566h-5.157a.571.571,0,0,1-.589-.566.73.73,0,0,1,.189-.411l4.344-5.675H377.7a.551.551,0,0,1-.577-.553.561.561,0,0,1,.577-.566h4.651a.569.569,0,0,1,.577.566.684.684,0,0,1-.177.4l-4.344,5.687h4.015a.551.551,0,0,1,.576.553" transform="translate(-225.905 -77.353)" fill="#202155"/>
    <path id="Path_555" data-name="Path 555" d="M406.8,136.085a.614.614,0,0,1-1.2.165l-.482-1.095h-3.662l-.459,1.095a.613.613,0,0,1-1.2-.165.788.788,0,0,1,.094-.353l2.814-6.652a.629.629,0,0,1,1.189,0l2.815,6.652a1,1,0,0,1,.094.353m-4.91-1.99h2.778l-1.378-3.614Z" transform="translate(-239.768 -77.159)" fill="#202155"/>
    <path id="Path_556" data-name="Path 556" d="M432.311,136.315a.568.568,0,0,1-.577.565.675.675,0,0,1-.554-.317l-2.037-2.815h-1.578v2.5a.624.624,0,1,1-1.248,0v-6.628a.619.619,0,0,1,.636-.636h2.189a2.382,2.382,0,0,1,2.637,2.378,2.256,2.256,0,0,1-1.366,2.143l1.708,2.343a.757.757,0,0,1,.189.472m-4.746-3.674h1.554a1.23,1.23,0,0,0,1.377-1.272,1.244,1.244,0,0,0-1.377-1.283h-1.554Z" transform="translate(-255.677 -77.353)" fill="#202155"/>
    <path id="Path_557" data-name="Path 557" d="M454.412,129.691l-2.39,3.886v2.472a.624.624,0,1,1-1.248,0v-2.5l-2.378-3.862a.851.851,0,0,1-.141-.447.589.589,0,0,1,.612-.589.625.625,0,0,1,.6.365l1.931,3.273,1.943-3.273a.653.653,0,0,1,.6-.365.592.592,0,0,1,.612.6.756.756,0,0,1-.142.435" transform="translate(-268.833 -77.159)" fill="#202155"/>
    <path id="Path_558" data-name="Path 558" d="M473.279,136.149v-6.57a.59.59,0,0,1,.6-.6h3.991a.561.561,0,0,1,.577.566.551.551,0,0,1-.577.553h-3.344v1.991h2.414a.541.541,0,1,1,0,1.082h-2.414v2.461h3.485a.551.551,0,0,1,.577.553.561.561,0,0,1-.577.566H473.88a.589.589,0,0,1-.6-.6" transform="translate(-283.841 -77.352)" fill="#202155"/>
    <path id="Path_559" data-name="Path 559" d="M501.592,136.315a.568.568,0,0,1-.576.565.673.673,0,0,1-.553-.317l-2.037-2.815h-1.578v2.5a.624.624,0,1,1-1.248,0v-6.628a.619.619,0,0,1,.636-.636h2.189a2.382,2.382,0,0,1,2.637,2.378A2.256,2.256,0,0,1,499.7,133.5l1.708,2.343a.756.756,0,0,1,.188.472m-4.745-3.674H498.4a1.23,1.23,0,0,0,1.377-1.272,1.244,1.244,0,0,0-1.377-1.283h-1.554Z" transform="translate(-297.228 -77.353)" fill="#202155"/>
    <path id="Path_560" data-name="Path 560" d="M520.92,123.308a.824.824,0,1,1-.824-.8.815.815,0,0,1,.824.8m-1.46,9.054V125.6a.624.624,0,1,1,1.248,0v6.759a.624.624,0,1,1-1.248,0" transform="translate(-311.425 -73.472)" fill="#202155"/>
    <path id="Path_561" data-name="Path 561" d="M190.983,37.93V59.919a2.645,2.645,0,0,1-2.653,2.733A3.308,3.308,0,0,1,185.636,61L173.818,45.809V59.878a2.714,2.714,0,1,1-5.426,0V37.89a2.668,2.668,0,0,1,2.652-2.733c1.367,0,1.97.764,2.774,1.768L185.6,52l-.04-14.069a2.714,2.714,0,1,1,5.426,0" transform="translate(-100.99 -21.085)" fill="#202155"/>
    <path id="Path_562" data-name="Path 562" d="M264.41,48.9a14.114,14.114,0,1,1-14.15-13.748A13.833,13.833,0,0,1,264.41,48.9m-22.631,0c0,5.1,3.537,8.723,8.522,8.723a8.332,8.332,0,0,0,8.522-8.723,8.332,8.332,0,0,0-8.522-8.723c-4.985,0-8.522,3.618-8.522,8.723" transform="translate(-141.652 -21.085)" fill="#202155"/>
    <path id="Path_563" data-name="Path 563" d="M335.746,37.769a3.052,3.052,0,0,1-.322,1.448L326.38,60.8a2.633,2.633,0,0,1-2.573,1.849,2.6,2.6,0,0,1-2.573-1.849L312.15,39.216a3.611,3.611,0,0,1-.322-1.448,2.626,2.626,0,0,1,2.693-2.613,2.663,2.663,0,0,1,2.533,1.93l6.754,16.6,6.713-16.6a2.746,2.746,0,0,1,2.573-1.93,2.592,2.592,0,0,1,2.653,2.613" transform="translate(-187.014 -21.084)" fill="#202155"/>
    <path id="Path_564" data-name="Path 564" d="M394.2,60.039a2.592,2.592,0,0,1-2.653,2.613,2.747,2.747,0,0,1-2.573-1.929l-1.125-2.734H376.637l-1.126,2.734a2.664,2.664,0,0,1-2.533,1.929,2.626,2.626,0,0,1-2.693-2.613,4.521,4.521,0,0,1,.322-1.448l9.085-21.586a2.714,2.714,0,0,1,5.145,0l9.044,21.586a3.65,3.65,0,0,1,.322,1.448m-15.8-6.512h7.638l-3.779-10.371Z" transform="translate(-222.072 -21.084)" fill="#202155"/>
    <path id="Path_565" data-name="Path 565" d="M464.152,49.547c0,7.878-5.95,13.346-14.432,13.346h-5.95A2.682,2.682,0,0,1,441,60.119V39.136a2.682,2.682,0,0,1,2.773-2.774h5.95c8.6,0,14.432,5.306,14.432,13.185m-17.728-8.281V57.988h3.256c5.347,0,8.924-3.336,8.924-8.441s-3.416-8.281-8.924-8.281Z" transform="translate(-264.481 -21.808)" fill="#202155"/>
    <path id="Path_566" data-name="Path 566" d="M528.4,60.039a2.592,2.592,0,0,1-2.653,2.613,2.747,2.747,0,0,1-2.573-1.929l-1.125-2.734H510.831l-1.126,2.734a2.664,2.664,0,0,1-2.533,1.929,2.626,2.626,0,0,1-2.693-2.613,4.521,4.521,0,0,1,.322-1.448l9.085-21.586a2.714,2.714,0,0,1,5.145,0l9.044,21.586a3.651,3.651,0,0,1,.322,1.448m-15.8-6.512h7.637l-3.778-10.371Z" transform="translate(-302.553 -21.084)" fill="#202155"/>
    <path id="Path_567" data-name="Path 567" d="M597.784,37.93V59.919a2.645,2.645,0,0,1-2.653,2.733A3.308,3.308,0,0,1,592.437,61L580.619,45.809V59.878a2.714,2.714,0,1,1-5.426,0V37.89a2.668,2.668,0,0,1,2.652-2.733c1.367,0,1.97.764,2.774,1.768L592.4,52l-.04-14.069a2.714,2.714,0,1,1,5.426,0" transform="translate(-344.963 -21.085)" fill="#202155"/>
  </g>
</svg>
